<?xml version="1.0" encoding="utf-8" standalone="no"?>
<!DOCTYPE svg PUBLIC "-//W3C//DTD SVG 1.1//EN"
  "http://www.w3.org/Graphics/SVG/1.1/DTD/svg11.dtd">
<svg xmlns:xlink="http://www.w3.org/1999/xlink" width="460.8pt" height="345.6pt" viewBox="0 0 460.8 345.6" xmlns="http://www.w3.org/2000/svg" version="1.1">
 <metadata>
  <rdf:RDF xmlns:dc="http://purl.org/dc/elements/1.1/" xmlns:cc="http://creativecommons.org/ns#" xmlns:rdf="http://www.w3.org/1999/02/22-rdf-syntax-ns#">
   <cc:Work>
    <dc:type rdf:resource="http://purl.org/dc/dcmitype/StillImage"/>
    <dc:date>2022-11-18T13:06:35.312816</dc:date>
    <dc:format>image/svg+xml</dc:format>
    <dc:creator>
     <cc:Agent>
      <dc:title>Matplotlib v3.5.3, https://matplotlib.org/</dc:title>
     </cc:Agent>
    </dc:creator>
   </cc:Work>
  </rdf:RDF>
 </metadata>
 <defs>
  <style type="text/css">*{stroke-linejoin: round; stroke-linecap: butt}</style>
 </defs>
 <g id="figure_1">
  <g id="patch_1">
   <path d="M 0 345.6 
L 460.8 345.6 
L 460.8 0 
L 0 0 
z
" style="fill: #ffffff"/>
  </g>
  <g id="axes_1">
   <g id="patch_2">
    <path d="M 57.6 307.584 
L 414.72 307.584 
L 414.72 41.472 
L 57.6 41.472 
z
" style="fill: #ffffff"/>
   </g>
   <g id="matplotlib.axis_1">
    <g id="xtick_1">
     <g id="line2d_1">
      <defs>
       <path id="m92e00298a3" d="M 0 0 
L 0 3.5 
" style="stroke: #000000; stroke-width: 0.8"/>
      </defs>
      <g>
       <use xlink:href="#m92e00298a3" x="73.832727" y="307.584" style="stroke: #000000; stroke-width: 0.8"/>
      </g>
     </g>
     <g id="text_1">
      <!-- 0 -->
      <g transform="translate(70.651477 322.182437)scale(0.1 -0.1)">
       <defs>
        <path id="DejaVuSans-30" d="M 2034 4250 
Q 1547 4250 1301 3770 
Q 1056 3291 1056 2328 
Q 1056 1369 1301 889 
Q 1547 409 2034 409 
Q 2525 409 2770 889 
Q 3016 1369 3016 2328 
Q 3016 3291 2770 3770 
Q 2525 4250 2034 4250 
z
M 2034 4750 
Q 2819 4750 3233 4129 
Q 3647 3509 3647 2328 
Q 3647 1150 3233 529 
Q 2819 -91 2034 -91 
Q 1250 -91 836 529 
Q 422 1150 422 2328 
Q 422 3509 836 4129 
Q 1250 4750 2034 4750 
z
" transform="scale(0.015625)"/>
       </defs>
       <use xlink:href="#DejaVuSans-30"/>
      </g>
     </g>
    </g>
    <g id="xtick_2">
     <g id="line2d_2">
      <g>
       <use xlink:href="#m92e00298a3" x="138.828632" y="307.584" style="stroke: #000000; stroke-width: 0.8"/>
      </g>
     </g>
     <g id="text_2">
      <!-- 200 -->
      <g transform="translate(129.284882 322.182437)scale(0.1 -0.1)">
       <defs>
        <path id="DejaVuSans-32" d="M 1228 531 
L 3431 531 
L 3431 0 
L 469 0 
L 469 531 
Q 828 903 1448 1529 
Q 2069 2156 2228 2338 
Q 2531 2678 2651 2914 
Q 2772 3150 2772 3378 
Q 2772 3750 2511 3984 
Q 2250 4219 1831 4219 
Q 1534 4219 1204 4116 
Q 875 4013 500 3803 
L 500 4441 
Q 881 4594 1212 4672 
Q 1544 4750 1819 4750 
Q 2544 4750 2975 4387 
Q 3406 4025 3406 3419 
Q 3406 3131 3298 2873 
Q 3191 2616 2906 2266 
Q 2828 2175 2409 1742 
Q 1991 1309 1228 531 
z
" transform="scale(0.015625)"/>
       </defs>
       <use xlink:href="#DejaVuSans-32"/>
       <use xlink:href="#DejaVuSans-30" x="63.623047"/>
       <use xlink:href="#DejaVuSans-30" x="127.246094"/>
      </g>
     </g>
    </g>
    <g id="xtick_3">
     <g id="line2d_3">
      <g>
       <use xlink:href="#m92e00298a3" x="203.824537" y="307.584" style="stroke: #000000; stroke-width: 0.8"/>
      </g>
     </g>
     <g id="text_3">
      <!-- 400 -->
      <g transform="translate(194.280787 322.182437)scale(0.1 -0.1)">
       <defs>
        <path id="DejaVuSans-34" d="M 2419 4116 
L 825 1625 
L 2419 1625 
L 2419 4116 
z
M 2253 4666 
L 3047 4666 
L 3047 1625 
L 3713 1625 
L 3713 1100 
L 3047 1100 
L 3047 0 
L 2419 0 
L 2419 1100 
L 313 1100 
L 313 1709 
L 2253 4666 
z
" transform="scale(0.015625)"/>
       </defs>
       <use xlink:href="#DejaVuSans-34"/>
       <use xlink:href="#DejaVuSans-30" x="63.623047"/>
       <use xlink:href="#DejaVuSans-30" x="127.246094"/>
      </g>
     </g>
    </g>
    <g id="xtick_4">
     <g id="line2d_4">
      <g>
       <use xlink:href="#m92e00298a3" x="268.820442" y="307.584" style="stroke: #000000; stroke-width: 0.8"/>
      </g>
     </g>
     <g id="text_4">
      <!-- 600 -->
      <g transform="translate(259.276692 322.182437)scale(0.1 -0.1)">
       <defs>
        <path id="DejaVuSans-36" d="M 2113 2584 
Q 1688 2584 1439 2293 
Q 1191 2003 1191 1497 
Q 1191 994 1439 701 
Q 1688 409 2113 409 
Q 2538 409 2786 701 
Q 3034 994 3034 1497 
Q 3034 2003 2786 2293 
Q 2538 2584 2113 2584 
z
M 3366 4563 
L 3366 3988 
Q 3128 4100 2886 4159 
Q 2644 4219 2406 4219 
Q 1781 4219 1451 3797 
Q 1122 3375 1075 2522 
Q 1259 2794 1537 2939 
Q 1816 3084 2150 3084 
Q 2853 3084 3261 2657 
Q 3669 2231 3669 1497 
Q 3669 778 3244 343 
Q 2819 -91 2113 -91 
Q 1303 -91 875 529 
Q 447 1150 447 2328 
Q 447 3434 972 4092 
Q 1497 4750 2381 4750 
Q 2619 4750 2861 4703 
Q 3103 4656 3366 4563 
z
" transform="scale(0.015625)"/>
       </defs>
       <use xlink:href="#DejaVuSans-36"/>
       <use xlink:href="#DejaVuSans-30" x="63.623047"/>
       <use xlink:href="#DejaVuSans-30" x="127.246094"/>
      </g>
     </g>
    </g>
    <g id="xtick_5">
     <g id="line2d_5">
      <g>
       <use xlink:href="#m92e00298a3" x="333.816347" y="307.584" style="stroke: #000000; stroke-width: 0.8"/>
      </g>
     </g>
     <g id="text_5">
      <!-- 800 -->
      <g transform="translate(324.272597 322.182437)scale(0.1 -0.1)">
       <defs>
        <path id="DejaVuSans-38" d="M 2034 2216 
Q 1584 2216 1326 1975 
Q 1069 1734 1069 1313 
Q 1069 891 1326 650 
Q 1584 409 2034 409 
Q 2484 409 2743 651 
Q 3003 894 3003 1313 
Q 3003 1734 2745 1975 
Q 2488 2216 2034 2216 
z
M 1403 2484 
Q 997 2584 770 2862 
Q 544 3141 544 3541 
Q 544 4100 942 4425 
Q 1341 4750 2034 4750 
Q 2731 4750 3128 4425 
Q 3525 4100 3525 3541 
Q 3525 3141 3298 2862 
Q 3072 2584 2669 2484 
Q 3125 2378 3379 2068 
Q 3634 1759 3634 1313 
Q 3634 634 3220 271 
Q 2806 -91 2034 -91 
Q 1263 -91 848 271 
Q 434 634 434 1313 
Q 434 1759 690 2068 
Q 947 2378 1403 2484 
z
M 1172 3481 
Q 1172 3119 1398 2916 
Q 1625 2713 2034 2713 
Q 2441 2713 2670 2916 
Q 2900 3119 2900 3481 
Q 2900 3844 2670 4047 
Q 2441 4250 2034 4250 
Q 1625 4250 1398 4047 
Q 1172 3844 1172 3481 
z
" transform="scale(0.015625)"/>
       </defs>
       <use xlink:href="#DejaVuSans-38"/>
       <use xlink:href="#DejaVuSans-30" x="63.623047"/>
       <use xlink:href="#DejaVuSans-30" x="127.246094"/>
      </g>
     </g>
    </g>
    <g id="xtick_6">
     <g id="line2d_6">
      <g>
       <use xlink:href="#m92e00298a3" x="398.812252" y="307.584" style="stroke: #000000; stroke-width: 0.8"/>
      </g>
     </g>
     <g id="text_6">
      <!-- 1000 -->
      <g transform="translate(386.087252 322.182437)scale(0.1 -0.1)">
       <defs>
        <path id="DejaVuSans-31" d="M 794 531 
L 1825 531 
L 1825 4091 
L 703 3866 
L 703 4441 
L 1819 4666 
L 2450 4666 
L 2450 531 
L 3481 531 
L 3481 0 
L 794 0 
L 794 531 
z
" transform="scale(0.015625)"/>
       </defs>
       <use xlink:href="#DejaVuSans-31"/>
       <use xlink:href="#DejaVuSans-30" x="63.623047"/>
       <use xlink:href="#DejaVuSans-30" x="127.246094"/>
       <use xlink:href="#DejaVuSans-30" x="190.869141"/>
      </g>
     </g>
    </g>
    <g id="text_7">
     <!-- Iteration -->
     <g transform="translate(208.588828 338.140094)scale(0.13 -0.13)">
      <defs>
       <path id="DejaVuSans-49" d="M 628 4666 
L 1259 4666 
L 1259 0 
L 628 0 
L 628 4666 
z
" transform="scale(0.015625)"/>
       <path id="DejaVuSans-74" d="M 1172 4494 
L 1172 3500 
L 2356 3500 
L 2356 3053 
L 1172 3053 
L 1172 1153 
Q 1172 725 1289 603 
Q 1406 481 1766 481 
L 2356 481 
L 2356 0 
L 1766 0 
Q 1100 0 847 248 
Q 594 497 594 1153 
L 594 3053 
L 172 3053 
L 172 3500 
L 594 3500 
L 594 4494 
L 1172 4494 
z
" transform="scale(0.015625)"/>
       <path id="DejaVuSans-65" d="M 3597 1894 
L 3597 1613 
L 953 1613 
Q 991 1019 1311 708 
Q 1631 397 2203 397 
Q 2534 397 2845 478 
Q 3156 559 3463 722 
L 3463 178 
Q 3153 47 2828 -22 
Q 2503 -91 2169 -91 
Q 1331 -91 842 396 
Q 353 884 353 1716 
Q 353 2575 817 3079 
Q 1281 3584 2069 3584 
Q 2775 3584 3186 3129 
Q 3597 2675 3597 1894 
z
M 3022 2063 
Q 3016 2534 2758 2815 
Q 2500 3097 2075 3097 
Q 1594 3097 1305 2825 
Q 1016 2553 972 2059 
L 3022 2063 
z
" transform="scale(0.015625)"/>
       <path id="DejaVuSans-72" d="M 2631 2963 
Q 2534 3019 2420 3045 
Q 2306 3072 2169 3072 
Q 1681 3072 1420 2755 
Q 1159 2438 1159 1844 
L 1159 0 
L 581 0 
L 581 3500 
L 1159 3500 
L 1159 2956 
Q 1341 3275 1631 3429 
Q 1922 3584 2338 3584 
Q 2397 3584 2469 3576 
Q 2541 3569 2628 3553 
L 2631 2963 
z
" transform="scale(0.015625)"/>
       <path id="DejaVuSans-61" d="M 2194 1759 
Q 1497 1759 1228 1600 
Q 959 1441 959 1056 
Q 959 750 1161 570 
Q 1363 391 1709 391 
Q 2188 391 2477 730 
Q 2766 1069 2766 1631 
L 2766 1759 
L 2194 1759 
z
M 3341 1997 
L 3341 0 
L 2766 0 
L 2766 531 
Q 2569 213 2275 61 
Q 1981 -91 1556 -91 
Q 1019 -91 701 211 
Q 384 513 384 1019 
Q 384 1609 779 1909 
Q 1175 2209 1959 2209 
L 2766 2209 
L 2766 2266 
Q 2766 2663 2505 2880 
Q 2244 3097 1772 3097 
Q 1472 3097 1187 3025 
Q 903 2953 641 2809 
L 641 3341 
Q 956 3463 1253 3523 
Q 1550 3584 1831 3584 
Q 2591 3584 2966 3190 
Q 3341 2797 3341 1997 
z
" transform="scale(0.015625)"/>
       <path id="DejaVuSans-69" d="M 603 3500 
L 1178 3500 
L 1178 0 
L 603 0 
L 603 3500 
z
M 603 4863 
L 1178 4863 
L 1178 4134 
L 603 4134 
L 603 4863 
z
" transform="scale(0.015625)"/>
       <path id="DejaVuSans-6f" d="M 1959 3097 
Q 1497 3097 1228 2736 
Q 959 2375 959 1747 
Q 959 1119 1226 758 
Q 1494 397 1959 397 
Q 2419 397 2687 759 
Q 2956 1122 2956 1747 
Q 2956 2369 2687 2733 
Q 2419 3097 1959 3097 
z
M 1959 3584 
Q 2709 3584 3137 3096 
Q 3566 2609 3566 1747 
Q 3566 888 3137 398 
Q 2709 -91 1959 -91 
Q 1206 -91 779 398 
Q 353 888 353 1747 
Q 353 2609 779 3096 
Q 1206 3584 1959 3584 
z
" transform="scale(0.015625)"/>
       <path id="DejaVuSans-6e" d="M 3513 2113 
L 3513 0 
L 2938 0 
L 2938 2094 
Q 2938 2591 2744 2837 
Q 2550 3084 2163 3084 
Q 1697 3084 1428 2787 
Q 1159 2491 1159 1978 
L 1159 0 
L 581 0 
L 581 3500 
L 1159 3500 
L 1159 2956 
Q 1366 3272 1645 3428 
Q 1925 3584 2291 3584 
Q 2894 3584 3203 3211 
Q 3513 2838 3513 2113 
z
" transform="scale(0.015625)"/>
      </defs>
      <use xlink:href="#DejaVuSans-49"/>
      <use xlink:href="#DejaVuSans-74" x="29.492188"/>
      <use xlink:href="#DejaVuSans-65" x="68.701172"/>
      <use xlink:href="#DejaVuSans-72" x="130.224609"/>
      <use xlink:href="#DejaVuSans-61" x="171.337891"/>
      <use xlink:href="#DejaVuSans-74" x="232.617188"/>
      <use xlink:href="#DejaVuSans-69" x="271.826172"/>
      <use xlink:href="#DejaVuSans-6f" x="299.609375"/>
      <use xlink:href="#DejaVuSans-6e" x="360.791016"/>
     </g>
    </g>
   </g>
   <g id="matplotlib.axis_2">
    <g id="ytick_1">
     <g id="line2d_7">
      <defs>
       <path id="m5d9dd75c8a" d="M 0 0 
L -3.5 0 
" style="stroke: #000000; stroke-width: 0.8"/>
      </defs>
      <g>
       <use xlink:href="#m5d9dd75c8a" x="57.6" y="281.257412" style="stroke: #000000; stroke-width: 0.8"/>
      </g>
     </g>
     <g id="text_8">
      <!-- 0.4 -->
      <g transform="translate(34.696875 285.056631)scale(0.1 -0.1)">
       <defs>
        <path id="DejaVuSans-2e" d="M 684 794 
L 1344 794 
L 1344 0 
L 684 0 
L 684 794 
z
" transform="scale(0.015625)"/>
       </defs>
       <use xlink:href="#DejaVuSans-30"/>
       <use xlink:href="#DejaVuSans-2e" x="63.623047"/>
       <use xlink:href="#DejaVuSans-34" x="95.410156"/>
      </g>
     </g>
    </g>
    <g id="ytick_2">
     <g id="line2d_8">
      <g>
       <use xlink:href="#m5d9dd75c8a" x="57.6" y="243.309176" style="stroke: #000000; stroke-width: 0.8"/>
      </g>
     </g>
     <g id="text_9">
      <!-- 0.5 -->
      <g transform="translate(34.696875 247.108395)scale(0.1 -0.1)">
       <defs>
        <path id="DejaVuSans-35" d="M 691 4666 
L 3169 4666 
L 3169 4134 
L 1269 4134 
L 1269 2991 
Q 1406 3038 1543 3061 
Q 1681 3084 1819 3084 
Q 2600 3084 3056 2656 
Q 3513 2228 3513 1497 
Q 3513 744 3044 326 
Q 2575 -91 1722 -91 
Q 1428 -91 1123 -41 
Q 819 9 494 109 
L 494 744 
Q 775 591 1075 516 
Q 1375 441 1709 441 
Q 2250 441 2565 725 
Q 2881 1009 2881 1497 
Q 2881 1984 2565 2268 
Q 2250 2553 1709 2553 
Q 1456 2553 1204 2497 
Q 953 2441 691 2322 
L 691 4666 
z
" transform="scale(0.015625)"/>
       </defs>
       <use xlink:href="#DejaVuSans-30"/>
       <use xlink:href="#DejaVuSans-2e" x="63.623047"/>
       <use xlink:href="#DejaVuSans-35" x="95.410156"/>
      </g>
     </g>
    </g>
    <g id="ytick_3">
     <g id="line2d_9">
      <g>
       <use xlink:href="#m5d9dd75c8a" x="57.6" y="205.360941" style="stroke: #000000; stroke-width: 0.8"/>
      </g>
     </g>
     <g id="text_10">
      <!-- 0.6 -->
      <g transform="translate(34.696875 209.16016)scale(0.1 -0.1)">
       <use xlink:href="#DejaVuSans-30"/>
       <use xlink:href="#DejaVuSans-2e" x="63.623047"/>
       <use xlink:href="#DejaVuSans-36" x="95.410156"/>
      </g>
     </g>
    </g>
    <g id="ytick_4">
     <g id="line2d_10">
      <g>
       <use xlink:href="#m5d9dd75c8a" x="57.6" y="167.412706" style="stroke: #000000; stroke-width: 0.8"/>
      </g>
     </g>
     <g id="text_11">
      <!-- 0.7 -->
      <g transform="translate(34.696875 171.211925)scale(0.1 -0.1)">
       <defs>
        <path id="DejaVuSans-37" d="M 525 4666 
L 3525 4666 
L 3525 4397 
L 1831 0 
L 1172 0 
L 2766 4134 
L 525 4134 
L 525 4666 
z
" transform="scale(0.015625)"/>
       </defs>
       <use xlink:href="#DejaVuSans-30"/>
       <use xlink:href="#DejaVuSans-2e" x="63.623047"/>
       <use xlink:href="#DejaVuSans-37" x="95.410156"/>
      </g>
     </g>
    </g>
    <g id="ytick_5">
     <g id="line2d_11">
      <g>
       <use xlink:href="#m5d9dd75c8a" x="57.6" y="129.464471" style="stroke: #000000; stroke-width: 0.8"/>
      </g>
     </g>
     <g id="text_12">
      <!-- 0.8 -->
      <g transform="translate(34.696875 133.263689)scale(0.1 -0.1)">
       <use xlink:href="#DejaVuSans-30"/>
       <use xlink:href="#DejaVuSans-2e" x="63.623047"/>
       <use xlink:href="#DejaVuSans-38" x="95.410156"/>
      </g>
     </g>
    </g>
    <g id="ytick_6">
     <g id="line2d_12">
      <g>
       <use xlink:href="#m5d9dd75c8a" x="57.6" y="91.516235" style="stroke: #000000; stroke-width: 0.8"/>
      </g>
     </g>
     <g id="text_13">
      <!-- 0.9 -->
      <g transform="translate(34.696875 95.315454)scale(0.1 -0.1)">
       <defs>
        <path id="DejaVuSans-39" d="M 703 97 
L 703 672 
Q 941 559 1184 500 
Q 1428 441 1663 441 
Q 2288 441 2617 861 
Q 2947 1281 2994 2138 
Q 2813 1869 2534 1725 
Q 2256 1581 1919 1581 
Q 1219 1581 811 2004 
Q 403 2428 403 3163 
Q 403 3881 828 4315 
Q 1253 4750 1959 4750 
Q 2769 4750 3195 4129 
Q 3622 3509 3622 2328 
Q 3622 1225 3098 567 
Q 2575 -91 1691 -91 
Q 1453 -91 1209 -44 
Q 966 3 703 97 
z
M 1959 2075 
Q 2384 2075 2632 2365 
Q 2881 2656 2881 3163 
Q 2881 3666 2632 3958 
Q 2384 4250 1959 4250 
Q 1534 4250 1286 3958 
Q 1038 3666 1038 3163 
Q 1038 2656 1286 2365 
Q 1534 2075 1959 2075 
z
" transform="scale(0.015625)"/>
       </defs>
       <use xlink:href="#DejaVuSans-30"/>
       <use xlink:href="#DejaVuSans-2e" x="63.623047"/>
       <use xlink:href="#DejaVuSans-39" x="95.410156"/>
      </g>
     </g>
    </g>
    <g id="ytick_7">
     <g id="line2d_13">
      <g>
       <use xlink:href="#m5d9dd75c8a" x="57.6" y="53.568" style="stroke: #000000; stroke-width: 0.8"/>
      </g>
     </g>
     <g id="text_14">
      <!-- 1.0 -->
      <g transform="translate(34.696875 57.367219)scale(0.1 -0.1)">
       <use xlink:href="#DejaVuSans-31"/>
       <use xlink:href="#DejaVuSans-2e" x="63.623047"/>
       <use xlink:href="#DejaVuSans-30" x="95.410156"/>
      </g>
     </g>
    </g>
    <g id="text_15">
     <!-- Accuracy -->
     <g transform="translate(27.993281 204.204562)rotate(-90)scale(0.13 -0.13)">
      <defs>
       <path id="DejaVuSans-41" d="M 2188 4044 
L 1331 1722 
L 3047 1722 
L 2188 4044 
z
M 1831 4666 
L 2547 4666 
L 4325 0 
L 3669 0 
L 3244 1197 
L 1141 1197 
L 716 0 
L 50 0 
L 1831 4666 
z
" transform="scale(0.015625)"/>
       <path id="DejaVuSans-63" d="M 3122 3366 
L 3122 2828 
Q 2878 2963 2633 3030 
Q 2388 3097 2138 3097 
Q 1578 3097 1268 2742 
Q 959 2388 959 1747 
Q 959 1106 1268 751 
Q 1578 397 2138 397 
Q 2388 397 2633 464 
Q 2878 531 3122 666 
L 3122 134 
Q 2881 22 2623 -34 
Q 2366 -91 2075 -91 
Q 1284 -91 818 406 
Q 353 903 353 1747 
Q 353 2603 823 3093 
Q 1294 3584 2113 3584 
Q 2378 3584 2631 3529 
Q 2884 3475 3122 3366 
z
" transform="scale(0.015625)"/>
       <path id="DejaVuSans-75" d="M 544 1381 
L 544 3500 
L 1119 3500 
L 1119 1403 
Q 1119 906 1312 657 
Q 1506 409 1894 409 
Q 2359 409 2629 706 
Q 2900 1003 2900 1516 
L 2900 3500 
L 3475 3500 
L 3475 0 
L 2900 0 
L 2900 538 
Q 2691 219 2414 64 
Q 2138 -91 1772 -91 
Q 1169 -91 856 284 
Q 544 659 544 1381 
z
M 1991 3584 
L 1991 3584 
z
" transform="scale(0.015625)"/>
       <path id="DejaVuSans-79" d="M 2059 -325 
Q 1816 -950 1584 -1140 
Q 1353 -1331 966 -1331 
L 506 -1331 
L 506 -850 
L 844 -850 
Q 1081 -850 1212 -737 
Q 1344 -625 1503 -206 
L 1606 56 
L 191 3500 
L 800 3500 
L 1894 763 
L 2988 3500 
L 3597 3500 
L 2059 -325 
z
" transform="scale(0.015625)"/>
      </defs>
      <use xlink:href="#DejaVuSans-41"/>
      <use xlink:href="#DejaVuSans-63" x="66.658203"/>
      <use xlink:href="#DejaVuSans-63" x="121.638672"/>
      <use xlink:href="#DejaVuSans-75" x="176.619141"/>
      <use xlink:href="#DejaVuSans-72" x="239.998047"/>
      <use xlink:href="#DejaVuSans-61" x="281.111328"/>
      <use xlink:href="#DejaVuSans-63" x="342.390625"/>
      <use xlink:href="#DejaVuSans-79" x="397.371094"/>
     </g>
    </g>
   </g>
   <g id="line2d_14">
    <path d="M 73.832727 53.568 
L 74.157707 59.892706 
L 74.482686 53.568 
L 398.487273 53.568 
L 398.487273 53.568 
" clip-path="url(#pe2bc694f14)" style="fill: none; stroke: #1f77b4; stroke-width: 1.5; stroke-linecap: square"/>
   </g>
   <g id="line2d_15">
    <path d="M 73.832727 243.309176 
L 74.157707 211.685647 
L 74.482686 230.659765 
L 74.807666 211.685647 
L 75.132645 224.335059 
L 75.457625 211.685647 
L 75.782604 218.010353 
L 76.107584 199.036235 
L 76.432563 224.335059 
L 76.757543 218.010353 
L 77.082523 180.062118 
L 77.407502 192.711529 
L 77.732482 230.659765 
L 78.057461 173.737412 
L 78.382441 236.984471 
L 78.70742 192.711529 
L 79.0324 192.711529 
L 79.357379 180.062118 
L 79.682359 180.062118 
L 80.007338 167.412706 
L 80.332318 167.412706 
L 80.657297 192.711529 
L 80.982277 173.737412 
L 81.307256 167.412706 
L 81.632236 173.737412 
L 81.957215 192.711529 
L 82.282195 142.113882 
L 82.607174 167.412706 
L 82.932154 148.438588 
L 83.257133 148.438588 
L 83.582113 154.763294 
L 83.907093 154.763294 
L 84.232072 173.737412 
L 84.882031 161.088 
L 85.207011 167.412706 
L 85.85697 167.412706 
L 86.181949 161.088 
L 86.506929 167.412706 
L 86.831908 161.088 
L 87.156888 167.412706 
L 87.481867 161.088 
L 87.806847 167.412706 
L 88.131826 161.088 
L 88.456806 173.737412 
L 88.781785 167.412706 
L 89.106765 173.737412 
L 89.431744 161.088 
L 89.756724 180.062118 
L 90.081704 161.088 
L 90.406683 167.412706 
L 90.731663 186.386824 
L 91.056642 167.412706 
L 91.381622 180.062118 
L 91.706601 186.386824 
L 92.031581 180.062118 
L 92.35656 192.711529 
L 92.68154 180.062118 
L 93.006519 192.711529 
L 93.331499 186.386824 
L 93.656478 173.737412 
L 93.981458 180.062118 
L 94.306437 180.062118 
L 94.956396 154.763294 
L 95.281376 180.062118 
L 95.606355 123.139765 
L 95.931335 173.737412 
L 96.256314 91.516235 
L 96.581294 154.763294 
L 96.906274 104.165647 
L 97.231253 129.464471 
L 97.556233 97.840941 
L 97.881212 85.191529 
L 98.206192 97.840941 
L 98.856151 97.840941 
L 99.18113 91.516235 
L 99.831089 91.516235 
L 100.156069 97.840941 
L 100.481048 91.516235 
L 100.806028 91.516235 
L 101.131007 97.840941 
L 101.455987 91.516235 
L 101.780966 91.516235 
L 102.105946 116.815059 
L 102.430925 104.165647 
L 102.755905 110.490353 
L 103.080885 104.165647 
L 103.405864 116.815059 
L 103.730844 123.139765 
L 104.055823 104.165647 
L 104.380803 116.815059 
L 104.705782 123.139765 
L 105.030762 116.815059 
L 105.355741 123.139765 
L 105.680721 104.165647 
L 106.0057 110.490353 
L 106.33068 129.464471 
L 106.655659 110.490353 
L 106.980639 116.815059 
L 108.930516 116.815059 
L 109.255495 123.139765 
L 109.905455 110.490353 
L 110.230434 116.815059 
L 110.880393 116.815059 
L 111.205373 123.139765 
L 111.530352 116.815059 
L 111.855332 104.165647 
L 112.180311 116.815059 
L 112.505291 116.815059 
L 112.83027 135.789176 
L 113.15525 116.815059 
L 113.480229 116.815059 
L 113.805209 123.139765 
L 114.130188 116.815059 
L 114.455168 123.139765 
L 114.780147 116.815059 
L 115.105127 129.464471 
L 115.430106 135.789176 
L 115.755086 135.789176 
L 116.080066 123.139765 
L 116.730025 123.139765 
L 117.055004 135.789176 
L 117.379984 123.139765 
L 117.704963 129.464471 
L 118.354922 129.464471 
L 118.679902 104.165647 
L 119.329861 104.165647 
L 119.65484 91.516235 
L 119.97982 91.516235 
L 120.304799 78.866824 
L 120.954758 104.165647 
L 121.279738 85.191529 
L 121.604717 97.840941 
L 122.579656 78.866824 
L 123.879574 78.866824 
L 124.529533 91.516235 
L 124.854513 85.191529 
L 125.179492 91.516235 
L 125.504472 78.866824 
L 125.829451 72.542118 
L 126.154431 85.191529 
L 126.47941 110.490353 
L 127.129369 110.490353 
L 128.104308 91.516235 
L 128.754267 104.165647 
L 130.054185 104.165647 
L 130.379165 97.840941 
L 130.704144 110.490353 
L 132.329042 110.490353 
L 132.654021 116.815059 
L 132.979001 104.165647 
L 133.30398 116.815059 
L 133.62896 123.139765 
L 133.953939 116.815059 
L 134.278919 116.815059 
L 134.603898 110.490353 
L 136.228796 110.490353 
L 136.553776 104.165647 
L 137.528714 104.165647 
L 137.853694 97.840941 
L 140.12855 97.840941 
L 140.45353 91.516235 
L 140.778509 116.815059 
L 141.103489 97.840941 
L 141.428468 123.139765 
L 141.753448 104.165647 
L 142.078428 123.139765 
L 142.403407 104.165647 
L 142.728387 123.139765 
L 143.053366 97.840941 
L 143.378346 123.139765 
L 143.703325 91.516235 
L 144.028305 116.815059 
L 144.353284 97.840941 
L 144.678264 129.464471 
L 145.003243 97.840941 
L 145.328223 129.464471 
L 145.653202 97.840941 
L 145.978182 110.490353 
L 146.303161 97.840941 
L 146.628141 97.840941 
L 146.95312 104.165647 
L 147.2781 104.165647 
L 147.603079 110.490353 
L 147.928059 104.165647 
L 148.253038 116.815059 
L 148.578018 97.840941 
L 148.902998 116.815059 
L 149.227977 104.165647 
L 149.552957 116.815059 
L 149.877936 104.165647 
L 150.202916 123.139765 
L 150.527895 97.840941 
L 150.852875 129.464471 
L 151.177854 97.840941 
L 151.502834 123.139765 
L 151.827813 116.815059 
L 152.152793 123.139765 
L 152.477772 116.815059 
L 152.802752 116.815059 
L 153.127731 110.490353 
L 153.452711 110.490353 
L 153.77769 129.464471 
L 154.10267 116.815059 
L 154.427649 123.139765 
L 154.752629 110.490353 
L 155.077609 123.139765 
L 155.402588 110.490353 
L 155.727568 123.139765 
L 156.052547 110.490353 
L 156.377527 123.139765 
L 156.702506 104.165647 
L 157.027486 116.815059 
L 157.352465 104.165647 
L 157.677445 110.490353 
L 158.002424 104.165647 
L 158.327404 123.139765 
L 158.652383 104.165647 
L 158.977363 116.815059 
L 159.302342 97.840941 
L 159.627322 123.139765 
L 159.952301 97.840941 
L 160.277281 116.815059 
L 160.60226 110.490353 
L 160.92724 129.464471 
L 161.252219 97.840941 
L 161.577199 129.464471 
L 161.902179 97.840941 
L 162.227158 129.464471 
L 162.552138 104.165647 
L 162.877117 129.464471 
L 163.202097 104.165647 
L 163.527076 135.789176 
L 163.852056 104.165647 
L 164.177035 135.789176 
L 164.502015 104.165647 
L 164.826994 129.464471 
L 165.151974 110.490353 
L 165.476953 135.789176 
L 165.801933 129.464471 
L 166.126912 110.490353 
L 166.451892 129.464471 
L 166.776871 123.139765 
L 167.101851 110.490353 
L 167.42683 123.139765 
L 167.75181 97.840941 
L 168.07679 123.139765 
L 168.401769 104.165647 
L 168.726749 129.464471 
L 169.051728 104.165647 
L 169.376708 129.464471 
L 169.701687 97.840941 
L 170.026667 123.139765 
L 170.351646 104.165647 
L 171.001605 116.815059 
L 171.326585 104.165647 
L 171.651564 116.815059 
L 171.976544 91.516235 
L 172.301523 116.815059 
L 172.626503 97.840941 
L 172.951482 110.490353 
L 173.276462 91.516235 
L 173.601441 110.490353 
L 173.926421 104.165647 
L 174.2514 110.490353 
L 174.57638 110.490353 
L 174.90136 104.165647 
L 175.226339 104.165647 
L 175.551319 116.815059 
L 175.876298 110.490353 
L 176.201278 116.815059 
L 176.526257 97.840941 
L 176.851237 104.165647 
L 177.176216 104.165647 
L 177.501196 110.490353 
L 177.826175 104.165647 
L 178.151155 104.165647 
L 178.476134 97.840941 
L 179.126093 110.490353 
L 179.776052 110.490353 
L 180.101032 104.165647 
L 180.426011 110.490353 
L 180.750991 104.165647 
L 181.075971 116.815059 
L 181.40095 104.165647 
L 181.72593 116.815059 
L 182.050909 104.165647 
L 182.375889 110.490353 
L 182.700868 97.840941 
L 183.025848 110.490353 
L 183.350827 97.840941 
L 183.675807 97.840941 
L 184.000786 110.490353 
L 184.325766 91.516235 
L 184.650745 97.840941 
L 184.975725 97.840941 
L 185.300704 104.165647 
L 185.625684 97.840941 
L 185.950663 110.490353 
L 186.275643 104.165647 
L 186.600622 110.490353 
L 186.925602 104.165647 
L 187.250581 110.490353 
L 187.575561 97.840941 
L 187.900541 123.139765 
L 188.22552 97.840941 
L 188.5505 97.840941 
L 188.875479 104.165647 
L 189.200459 123.139765 
L 189.525438 97.840941 
L 189.850418 123.139765 
L 190.175397 97.840941 
L 190.500377 123.139765 
L 190.825356 104.165647 
L 191.150336 123.139765 
L 191.475315 97.840941 
L 191.800295 110.490353 
L 192.125274 97.840941 
L 192.450254 116.815059 
L 192.775233 97.840941 
L 193.100213 104.165647 
L 193.750172 104.165647 
L 194.075152 91.516235 
L 194.400131 104.165647 
L 194.725111 91.516235 
L 195.05009 104.165647 
L 195.37507 97.840941 
L 195.700049 97.840941 
L 196.025029 91.516235 
L 196.350008 104.165647 
L 196.674988 104.165647 
L 196.999967 97.840941 
L 197.324947 110.490353 
L 197.649926 104.165647 
L 197.974906 110.490353 
L 198.299885 97.840941 
L 198.624865 97.840941 
L 198.949844 110.490353 
L 199.274824 91.516235 
L 199.599803 97.840941 
L 199.924783 97.840941 
L 200.249762 110.490353 
L 200.574742 91.516235 
L 200.899722 104.165647 
L 201.224701 97.840941 
L 201.549681 85.191529 
L 201.87466 85.191529 
L 202.19964 97.840941 
L 202.524619 104.165647 
L 202.849599 97.840941 
L 203.499558 110.490353 
L 203.824537 97.840941 
L 204.149517 104.165647 
L 204.474496 97.840941 
L 204.799476 85.191529 
L 205.124455 78.866824 
L 205.449435 85.191529 
L 205.774414 78.866824 
L 206.099394 85.191529 
L 206.749353 85.191529 
L 207.074333 78.866824 
L 207.399312 91.516235 
L 207.724292 85.191529 
L 208.049271 91.516235 
L 208.69923 91.516235 
L 209.02421 85.191529 
L 209.349189 97.840941 
L 209.999148 97.840941 
L 210.324128 110.490353 
L 210.649107 104.165647 
L 210.974087 85.191529 
L 211.299066 104.165647 
L 211.624046 104.165647 
L 211.949025 97.840941 
L 212.274005 104.165647 
L 212.598984 85.191529 
L 212.923964 85.191529 
L 213.248943 78.866824 
L 213.573923 85.191529 
L 214.548862 85.191529 
L 214.873841 78.866824 
L 215.198821 85.191529 
L 215.84878 85.191529 
L 216.173759 72.542118 
L 216.498739 78.866824 
L 216.823718 78.866824 
L 217.148698 72.542118 
L 217.473677 78.866824 
L 218.448616 78.866824 
L 218.773595 91.516235 
L 219.098575 78.866824 
L 219.423554 72.542118 
L 219.748534 85.191529 
L 220.073514 78.866824 
L 223.973268 78.866824 
L 224.298247 85.191529 
L 224.623227 78.866824 
L 225.273186 78.866824 
L 225.598165 85.191529 
L 225.923145 78.866824 
L 226.248124 85.191529 
L 226.573104 78.866824 
L 226.898084 85.191529 
L 227.223063 78.866824 
L 227.548043 85.191529 
L 227.873022 78.866824 
L 228.198002 85.191529 
L 228.522981 78.866824 
L 228.847961 85.191529 
L 229.17294 78.866824 
L 229.49792 85.191529 
L 229.822899 78.866824 
L 230.797838 78.866824 
L 231.447797 91.516235 
L 231.772776 78.866824 
L 232.097756 91.516235 
L 232.422735 78.866824 
L 232.747715 85.191529 
L 233.072695 78.866824 
L 233.397674 85.191529 
L 234.047633 85.191529 
L 234.372613 91.516235 
L 234.697592 85.191529 
L 235.022572 91.516235 
L 235.672531 91.516235 
L 235.99751 85.191529 
L 236.32249 91.516235 
L 236.647469 85.191529 
L 236.972449 91.516235 
L 237.622408 78.866824 
L 237.947387 85.191529 
L 238.272367 78.866824 
L 238.597346 85.191529 
L 238.922326 78.866824 
L 239.572285 78.866824 
L 239.897265 85.191529 
L 240.222244 78.866824 
L 240.547224 78.866824 
L 240.872203 85.191529 
L 241.197183 78.866824 
L 241.847142 78.866824 
L 242.172121 85.191529 
L 242.497101 78.866824 
L 242.82208 78.866824 
L 243.14706 85.191529 
L 243.472039 78.866824 
L 243.797019 78.866824 
L 244.121998 91.516235 
L 244.771957 78.866824 
L 245.096937 85.191529 
L 245.421916 85.191529 
L 245.746896 78.866824 
L 246.071876 85.191529 
L 246.396855 78.866824 
L 246.721835 85.191529 
L 247.046814 85.191529 
L 247.371794 78.866824 
L 247.696773 85.191529 
L 248.346732 85.191529 
L 248.671712 91.516235 
L 248.996691 85.191529 
L 249.321671 91.516235 
L 249.64665 85.191529 
L 249.97163 91.516235 
L 250.621589 91.516235 
L 250.946568 97.840941 
L 251.271548 97.840941 
L 251.596527 91.516235 
L 252.246486 104.165647 
L 252.571466 91.516235 
L 252.896446 104.165647 
L 253.221425 91.516235 
L 253.546405 97.840941 
L 253.871384 91.516235 
L 254.196364 97.840941 
L 254.521343 91.516235 
L 254.846323 97.840941 
L 255.171302 91.516235 
L 255.496282 91.516235 
L 255.821261 97.840941 
L 256.7962 97.840941 
L 257.446159 85.191529 
L 258.096118 97.840941 
L 258.421097 91.516235 
L 258.746077 97.840941 
L 259.071057 91.516235 
L 259.396036 91.516235 
L 259.721016 85.191529 
L 260.370975 85.191529 
L 260.695954 78.866824 
L 261.020934 85.191529 
L 263.62077 85.191529 
L 263.945749 91.516235 
L 264.270729 85.191529 
L 264.595708 91.516235 
L 264.920688 85.191529 
L 265.245667 91.516235 
L 265.570647 85.191529 
L 265.895627 91.516235 
L 266.220606 85.191529 
L 266.545586 91.516235 
L 266.870565 85.191529 
L 267.195545 91.516235 
L 267.520524 91.516235 
L 267.845504 97.840941 
L 269.145422 97.840941 
L 269.470401 91.516235 
L 271.745258 91.516235 
L 272.070238 97.840941 
L 272.395217 85.191529 
L 272.720197 91.516235 
L 277.919869 91.516235 
L 278.244848 97.840941 
L 279.219787 97.840941 
L 279.544767 91.516235 
L 280.194726 104.165647 
L 280.519705 91.516235 
L 280.844685 97.840941 
L 281.169664 91.516235 
L 281.494644 104.165647 
L 281.819623 91.516235 
L 282.144603 91.516235 
L 282.469582 97.840941 
L 282.794562 91.516235 
L 283.444521 91.516235 
L 283.7695 97.840941 
L 284.09448 91.516235 
L 284.419459 97.840941 
L 284.744439 91.516235 
L 285.069419 91.516235 
L 285.394398 97.840941 
L 286.044357 97.840941 
L 286.369337 91.516235 
L 287.019296 91.516235 
L 287.669255 104.165647 
L 287.994234 97.840941 
L 288.319214 104.165647 
L 288.969173 91.516235 
L 289.294152 91.516235 
L 289.619132 97.840941 
L 289.944111 97.840941 
L 290.269091 91.516235 
L 290.59407 97.840941 
L 290.91905 91.516235 
L 291.244029 97.840941 
L 291.569009 91.516235 
L 291.893989 97.840941 
L 292.218968 97.840941 
L 292.543948 104.165647 
L 292.868927 91.516235 
L 293.193907 97.840941 
L 293.518886 97.840941 
L 293.843866 104.165647 
L 294.168845 97.840941 
L 294.493825 104.165647 
L 294.818804 97.840941 
L 296.768681 97.840941 
L 297.093661 104.165647 
L 298.718559 104.165647 
L 299.043538 97.840941 
L 299.368518 104.165647 
L 299.693497 97.840941 
L 300.343456 97.840941 
L 300.668436 104.165647 
L 302.293333 104.165647 
L 302.618313 97.840941 
L 303.593251 97.840941 
L 303.918231 85.191529 
L 305.543129 85.191529 
L 305.868108 91.516235 
L 306.843047 91.516235 
L 307.168026 85.191529 
L 307.493006 97.840941 
L 307.817985 91.516235 
L 308.142965 91.516235 
L 308.467944 85.191529 
L 308.792924 91.516235 
L 309.117903 91.516235 
L 309.442883 85.191529 
L 309.767862 85.191529 
L 310.092842 91.516235 
L 310.417821 85.191529 
L 310.742801 85.191529 
L 311.067781 91.516235 
L 311.39276 85.191529 
L 312.692678 85.191529 
L 313.017658 104.165647 
L 313.342637 91.516235 
L 313.667617 97.840941 
L 314.317576 97.840941 
L 314.642555 91.516235 
L 314.967535 97.840941 
L 315.292514 97.840941 
L 315.617494 85.191529 
L 315.942473 97.840941 
L 316.267453 91.516235 
L 316.592432 97.840941 
L 317.242391 85.191529 
L 317.567371 91.516235 
L 317.892351 91.516235 
L 318.21733 97.840941 
L 318.54231 91.516235 
L 318.867289 91.516235 
L 319.192269 97.840941 
L 319.517248 91.516235 
L 319.842228 97.840941 
L 320.167207 97.840941 
L 320.492187 104.165647 
L 320.817166 97.840941 
L 321.142146 97.840941 
L 321.467125 91.516235 
L 321.792105 91.516235 
L 322.117084 85.191529 
L 322.442064 91.516235 
L 322.767043 85.191529 
L 323.092023 91.516235 
L 323.417002 85.191529 
L 323.741982 91.516235 
L 324.066962 91.516235 
L 324.391941 97.840941 
L 324.716921 91.516235 
L 325.0419 97.840941 
L 325.36688 91.516235 
L 325.691859 97.840941 
L 326.016839 91.516235 
L 326.666798 91.516235 
L 326.991777 97.840941 
L 327.641736 85.191529 
L 327.966716 85.191529 
L 328.291695 97.840941 
L 328.616675 104.165647 
L 329.266634 104.165647 
L 329.591613 97.840941 
L 329.916593 104.165647 
L 330.566552 104.165647 
L 330.891532 97.840941 
L 331.216511 104.165647 
L 331.541491 97.840941 
L 331.86647 110.490353 
L 332.19145 97.840941 
L 332.516429 110.490353 
L 332.841409 110.490353 
L 333.166388 116.815059 
L 333.491368 97.840941 
L 335.441245 97.840941 
L 336.091204 110.490353 
L 336.416183 104.165647 
L 336.741163 110.490353 
L 337.066143 110.490353 
L 337.391122 97.840941 
L 337.716102 91.516235 
L 338.041081 97.840941 
L 338.366061 91.516235 
L 338.69104 91.516235 
L 339.01602 97.840941 
L 339.665979 97.840941 
L 339.990958 91.516235 
L 340.315938 104.165647 
L 340.640917 91.516235 
L 340.965897 97.840941 
L 341.290876 85.191529 
L 341.615856 97.840941 
L 341.940835 91.516235 
L 342.915774 91.516235 
L 343.240753 85.191529 
L 343.565733 91.516235 
L 345.51561 91.516235 
L 345.84059 97.840941 
L 346.165569 91.516235 
L 346.815528 91.516235 
L 347.140508 104.165647 
L 347.465487 97.840941 
L 347.790467 97.840941 
L 348.115446 110.490353 
L 348.440426 104.165647 
L 348.765405 110.490353 
L 349.090385 97.840941 
L 350.390303 97.840941 
L 350.715283 110.490353 
L 351.365242 110.490353 
L 351.690221 104.165647 
L 352.015201 110.490353 
L 352.66516 110.490353 
L 352.990139 104.165647 
L 353.315119 110.490353 
L 353.640098 110.490353 
L 353.965078 104.165647 
L 354.290057 110.490353 
L 354.940016 110.490353 
L 355.264996 104.165647 
L 355.589975 110.490353 
L 355.914955 104.165647 
L 356.239934 110.490353 
L 356.564914 104.165647 
L 356.889894 104.165647 
L 357.214873 110.490353 
L 357.539853 104.165647 
L 357.864832 110.490353 
L 358.189812 104.165647 
L 358.514791 110.490353 
L 361.764586 110.490353 
L 362.089566 104.165647 
L 362.414545 110.490353 
L 362.739525 110.490353 
L 363.064505 104.165647 
L 363.389484 110.490353 
L 364.364423 110.490353 
L 364.689402 104.165647 
L 365.014382 110.490353 
L 365.339361 104.165647 
L 365.664341 110.490353 
L 365.98932 104.165647 
L 368.589156 104.165647 
L 368.914136 110.490353 
L 369.239115 104.165647 
L 369.564095 110.490353 
L 369.889075 104.165647 
L 373.13887 104.165647 
L 373.463849 97.840941 
L 374.113808 110.490353 
L 374.438788 104.165647 
L 374.763767 110.490353 
L 375.088747 91.516235 
L 376.063686 91.516235 
L 376.388665 97.840941 
L 376.713645 91.516235 
L 377.038624 97.840941 
L 377.363604 97.840941 
L 377.688583 91.516235 
L 378.013563 97.840941 
L 379.313481 97.840941 
L 379.63846 104.165647 
L 379.96344 97.840941 
L 380.288419 104.165647 
L 380.938378 91.516235 
L 381.263358 104.165647 
L 381.588337 110.490353 
L 381.913317 104.165647 
L 382.238296 110.490353 
L 382.563276 104.165647 
L 382.888256 110.490353 
L 383.213235 97.840941 
L 383.538215 104.165647 
L 384.188174 91.516235 
L 384.513153 97.840941 
L 385.163112 97.840941 
L 385.813071 110.490353 
L 386.46303 97.840941 
L 386.78801 97.840941 
L 387.112989 91.516235 
L 387.437969 97.840941 
L 387.762948 91.516235 
L 388.087928 97.840941 
L 390.037805 97.840941 
L 390.362785 104.165647 
L 391.012744 104.165647 
L 391.337723 97.840941 
L 391.987682 97.840941 
L 392.312662 104.165647 
L 392.637641 97.840941 
L 392.962621 104.165647 
L 394.912498 104.165647 
L 395.237477 97.840941 
L 395.887437 97.840941 
L 396.212416 104.165647 
L 396.537396 104.165647 
L 396.862375 97.840941 
L 397.187355 104.165647 
L 397.512334 91.516235 
L 397.837314 97.840941 
L 398.162293 91.516235 
L 398.487273 91.516235 
L 398.487273 91.516235 
" clip-path="url(#pe2bc694f14)" style="fill: none; stroke: #ff7f0e; stroke-width: 1.5; stroke-linecap: square"/>
   </g>
   <g id="line2d_16">
    <path d="M 73.832727 295.488 
L 74.482686 224.335059 
L 74.807666 252.796235 
L 75.132645 252.796235 
L 75.457625 186.386824 
L 75.782604 191.130353 
L 76.107584 210.104471 
L 76.432563 181.643294 
L 76.757543 181.643294 
L 77.082523 186.386824 
L 77.407502 214.848 
L 77.732482 191.130353 
L 78.057461 205.360941 
L 78.382441 210.104471 
L 78.70742 210.104471 
L 79.0324 224.335059 
L 79.357379 224.335059 
L 79.682359 219.591529 
L 80.007338 210.104471 
L 80.332318 219.591529 
L 80.657297 214.848 
L 80.982277 214.848 
L 81.307256 200.617412 
L 81.632236 210.104471 
L 81.957215 210.104471 
L 82.282195 205.360941 
L 82.607174 205.360941 
L 82.932154 224.335059 
L 83.257133 224.335059 
L 83.582113 205.360941 
L 83.907093 214.848 
L 84.232072 219.591529 
L 84.557052 205.360941 
L 84.882031 210.104471 
L 85.207011 205.360941 
L 85.53199 195.873882 
L 85.85697 200.617412 
L 86.181949 219.591529 
L 86.506929 214.848 
L 86.831908 214.848 
L 87.156888 219.591529 
L 87.481867 172.156235 
L 87.806847 176.899765 
L 88.131826 176.899765 
L 88.456806 191.130353 
L 88.781785 191.130353 
L 89.431744 200.617412 
L 89.756724 181.643294 
L 90.081704 200.617412 
L 90.406683 181.643294 
L 90.731663 210.104471 
L 91.056642 181.643294 
L 91.381622 181.643294 
L 91.706601 186.386824 
L 92.031581 200.617412 
L 92.35656 153.182118 
L 92.68154 200.617412 
L 93.006519 181.643294 
L 93.331499 191.130353 
L 93.656478 186.386824 
L 93.981458 186.386824 
L 94.306437 157.925647 
L 94.631417 153.182118 
L 94.956396 153.182118 
L 95.281376 172.156235 
L 95.606355 172.156235 
L 95.931335 186.386824 
L 96.256314 167.412706 
L 96.581294 167.412706 
L 96.906274 181.643294 
L 97.231253 153.182118 
L 97.556233 148.438588 
L 97.881212 138.951529 
L 98.206192 148.438588 
L 99.18113 148.438588 
L 99.50611 138.951529 
L 99.831089 153.182118 
L 100.156069 148.438588 
L 100.481048 134.208 
L 100.806028 134.208 
L 101.131007 172.156235 
L 101.455987 153.182118 
L 101.780966 153.182118 
L 102.105946 143.695059 
L 102.430925 143.695059 
L 102.755905 148.438588 
L 103.730844 148.438588 
L 104.055823 143.695059 
L 104.380803 148.438588 
L 104.705782 143.695059 
L 105.355741 143.695059 
L 105.680721 148.438588 
L 106.0057 143.695059 
L 106.33068 153.182118 
L 106.655659 143.695059 
L 106.980639 172.156235 
L 107.305618 153.182118 
L 107.630598 167.412706 
L 107.955577 134.208 
L 108.280557 157.925647 
L 108.605536 148.438588 
L 108.930516 153.182118 
L 109.580475 153.182118 
L 109.905455 143.695059 
L 110.230434 148.438588 
L 110.555414 143.695059 
L 110.880393 148.438588 
L 111.205373 143.695059 
L 111.530352 143.695059 
L 111.855332 148.438588 
L 112.180311 148.438588 
L 112.505291 143.695059 
L 112.83027 143.695059 
L 113.15525 124.720941 
L 113.480229 153.182118 
L 113.805209 138.951529 
L 114.130188 148.438588 
L 114.780147 148.438588 
L 115.105127 153.182118 
L 115.430106 148.438588 
L 115.755086 167.412706 
L 116.080066 157.925647 
L 116.405045 157.925647 
L 116.730025 138.951529 
L 117.055004 157.925647 
L 117.379984 162.669176 
L 117.704963 162.669176 
L 118.029943 153.182118 
L 118.354922 162.669176 
L 118.679902 167.412706 
L 119.004881 143.695059 
L 119.329861 167.412706 
L 119.65484 167.412706 
L 119.97982 162.669176 
L 120.304799 138.951529 
L 120.629779 172.156235 
L 121.279738 153.182118 
L 121.929697 153.182118 
L 122.254676 143.695059 
L 122.579656 172.156235 
L 122.904636 148.438588 
L 123.229615 148.438588 
L 123.554595 157.925647 
L 123.879574 157.925647 
L 124.204554 153.182118 
L 124.529533 157.925647 
L 125.179492 157.925647 
L 125.504472 162.669176 
L 125.829451 143.695059 
L 126.154431 162.669176 
L 126.47941 157.925647 
L 126.80439 148.438588 
L 127.129369 157.925647 
L 127.454349 148.438588 
L 127.779328 157.925647 
L 128.104308 157.925647 
L 128.429287 162.669176 
L 128.754267 153.182118 
L 129.079247 157.925647 
L 129.729206 138.951529 
L 130.379165 157.925647 
L 130.704144 153.182118 
L 131.029124 157.925647 
L 131.354103 143.695059 
L 131.679083 162.669176 
L 132.004062 162.669176 
L 132.329042 148.438588 
L 132.654021 162.669176 
L 133.30398 153.182118 
L 133.62896 162.669176 
L 133.953939 157.925647 
L 134.603898 157.925647 
L 134.928878 153.182118 
L 135.253857 157.925647 
L 136.228796 157.925647 
L 136.553776 143.695059 
L 136.878755 148.438588 
L 137.853694 148.438588 
L 138.178673 162.669176 
L 138.503653 157.925647 
L 139.478591 157.925647 
L 140.12855 148.438588 
L 140.45353 153.182118 
L 140.778509 143.695059 
L 141.103489 143.695059 
L 141.428468 148.438588 
L 141.753448 138.951529 
L 142.078428 148.438588 
L 142.403407 148.438588 
L 142.728387 143.695059 
L 143.053366 143.695059 
L 143.378346 134.208 
L 143.703325 119.977412 
L 144.028305 124.720941 
L 144.678264 124.720941 
L 145.003243 134.208 
L 145.328223 134.208 
L 145.653202 138.951529 
L 145.978182 134.208 
L 146.628141 134.208 
L 146.95312 129.464471 
L 147.2781 119.977412 
L 147.603079 143.695059 
L 147.928059 138.951529 
L 148.578018 148.438588 
L 148.902998 143.695059 
L 149.227977 143.695059 
L 149.552957 157.925647 
L 150.202916 157.925647 
L 150.527895 129.464471 
L 150.852875 129.464471 
L 151.177854 138.951529 
L 151.502834 134.208 
L 152.152793 134.208 
L 152.477772 124.720941 
L 152.802752 134.208 
L 153.127731 134.208 
L 153.452711 129.464471 
L 153.77769 143.695059 
L 154.427649 143.695059 
L 154.752629 134.208 
L 155.077609 105.746824 
L 155.402588 129.464471 
L 155.727568 134.208 
L 156.052547 124.720941 
L 156.377527 134.208 
L 156.702506 138.951529 
L 157.027486 138.951529 
L 157.352465 134.208 
L 158.652383 134.208 
L 158.977363 143.695059 
L 159.302342 129.464471 
L 159.627322 143.695059 
L 159.952301 124.720941 
L 160.277281 143.695059 
L 160.60226 143.695059 
L 160.92724 134.208 
L 161.252219 138.951529 
L 161.902179 138.951529 
L 162.227158 134.208 
L 162.552138 143.695059 
L 162.877117 134.208 
L 163.202097 138.951529 
L 163.527076 129.464471 
L 163.852056 138.951529 
L 164.177035 134.208 
L 164.502015 115.233882 
L 164.826994 119.977412 
L 165.801933 119.977412 
L 166.126912 124.720941 
L 166.451892 124.720941 
L 166.776871 115.233882 
L 167.101851 115.233882 
L 167.42683 119.977412 
L 167.75181 115.233882 
L 168.07679 119.977412 
L 168.726749 119.977412 
L 169.051728 124.720941 
L 169.376708 124.720941 
L 169.701687 119.977412 
L 170.026667 124.720941 
L 170.351646 119.977412 
L 172.951482 119.977412 
L 173.276462 124.720941 
L 173.601441 115.233882 
L 173.926421 119.977412 
L 174.2514 110.490353 
L 174.90136 110.490353 
L 175.226339 101.003294 
L 175.551319 110.490353 
L 175.876298 115.233882 
L 176.201278 105.746824 
L 176.526257 105.746824 
L 176.851237 101.003294 
L 177.176216 105.746824 
L 178.151155 105.746824 
L 178.476134 101.003294 
L 178.801114 105.746824 
L 179.126093 105.746824 
L 179.451073 115.233882 
L 179.776052 110.490353 
L 180.101032 115.233882 
L 180.426011 110.490353 
L 180.750991 124.720941 
L 181.075971 119.977412 
L 181.40095 110.490353 
L 181.72593 115.233882 
L 182.050909 124.720941 
L 182.375889 115.233882 
L 182.700868 119.977412 
L 183.025848 119.977412 
L 183.350827 105.746824 
L 183.675807 110.490353 
L 184.000786 105.746824 
L 184.650745 105.746824 
L 184.975725 110.490353 
L 185.300704 110.490353 
L 185.625684 101.003294 
L 186.600622 101.003294 
L 186.925602 105.746824 
L 187.575561 96.259765 
L 187.900541 96.259765 
L 188.22552 105.746824 
L 188.875479 96.259765 
L 189.200459 101.003294 
L 189.525438 96.259765 
L 189.850418 101.003294 
L 190.500377 101.003294 
L 190.825356 91.516235 
L 191.475315 101.003294 
L 191.800295 96.259765 
L 192.125274 110.490353 
L 192.450254 96.259765 
L 192.775233 110.490353 
L 193.100213 96.259765 
L 195.05009 96.259765 
L 195.37507 101.003294 
L 195.700049 96.259765 
L 196.350008 96.259765 
L 196.674988 101.003294 
L 196.999967 96.259765 
L 197.324947 96.259765 
L 197.649926 105.746824 
L 197.974906 91.516235 
L 198.299885 110.490353 
L 198.624865 91.516235 
L 198.949844 110.490353 
L 199.274824 86.772706 
L 199.599803 82.029176 
L 199.924783 82.029176 
L 200.249762 119.977412 
L 200.574742 96.259765 
L 200.899722 110.490353 
L 201.224701 91.516235 
L 201.549681 101.003294 
L 201.87466 86.772706 
L 202.19964 101.003294 
L 202.524619 91.516235 
L 202.849599 96.259765 
L 203.174578 105.746824 
L 203.499558 101.003294 
L 203.824537 101.003294 
L 204.149517 105.746824 
L 204.474496 101.003294 
L 204.799476 101.003294 
L 205.124455 96.259765 
L 205.449435 101.003294 
L 205.774414 91.516235 
L 207.399312 91.516235 
L 207.724292 101.003294 
L 208.374251 91.516235 
L 209.02421 91.516235 
L 209.349189 82.029176 
L 209.674169 91.516235 
L 209.999148 82.029176 
L 210.649107 91.516235 
L 210.974087 91.516235 
L 211.299066 86.772706 
L 211.624046 91.516235 
L 211.949025 86.772706 
L 212.274005 96.259765 
L 212.598984 86.772706 
L 212.923964 96.259765 
L 213.248943 82.029176 
L 213.573923 86.772706 
L 214.223882 86.772706 
L 214.548862 82.029176 
L 216.498739 82.029176 
L 216.823718 96.259765 
L 217.148698 82.029176 
L 217.473677 91.516235 
L 217.798657 82.029176 
L 218.123636 82.029176 
L 218.448616 86.772706 
L 218.773595 96.259765 
L 219.098575 96.259765 
L 219.423554 91.516235 
L 220.073514 91.516235 
L 220.398493 96.259765 
L 220.723473 91.516235 
L 221.048452 91.516235 
L 221.373432 101.003294 
L 221.698411 86.772706 
L 222.023391 91.516235 
L 222.34837 105.746824 
L 222.67335 96.259765 
L 222.998329 96.259765 
L 223.323309 86.772706 
L 223.648288 91.516235 
L 224.298247 91.516235 
L 224.623227 86.772706 
L 224.948206 86.772706 
L 225.273186 77.285647 
L 225.598165 91.516235 
L 225.923145 82.029176 
L 226.248124 86.772706 
L 226.573104 86.772706 
L 226.898084 101.003294 
L 227.223063 91.516235 
L 227.873022 91.516235 
L 228.198002 96.259765 
L 228.522981 86.772706 
L 230.147879 86.772706 
L 230.797838 96.259765 
L 231.122817 96.259765 
L 231.447797 91.516235 
L 232.422735 91.516235 
L 232.747715 96.259765 
L 235.347551 96.259765 
L 235.672531 86.772706 
L 235.99751 91.516235 
L 236.32249 91.516235 
L 236.647469 86.772706 
L 237.622408 86.772706 
L 237.947387 91.516235 
L 238.272367 82.029176 
L 238.597346 96.259765 
L 238.922326 82.029176 
L 239.247305 91.516235 
L 239.572285 86.772706 
L 239.897265 86.772706 
L 240.222244 91.516235 
L 241.197183 91.516235 
L 241.522162 86.772706 
L 242.82208 86.772706 
L 243.14706 96.259765 
L 243.472039 86.772706 
L 243.797019 96.259765 
L 244.446978 86.772706 
L 244.771957 96.259765 
L 245.096937 96.259765 
L 245.421916 91.516235 
L 245.746896 96.259765 
L 246.396855 96.259765 
L 246.721835 91.516235 
L 247.371794 91.516235 
L 247.696773 86.772706 
L 248.021753 86.772706 
L 248.346732 91.516235 
L 248.671712 91.516235 
L 248.996691 96.259765 
L 249.321671 91.516235 
L 249.64665 101.003294 
L 249.97163 96.259765 
L 250.621589 96.259765 
L 250.946568 91.516235 
L 251.271548 96.259765 
L 252.246486 96.259765 
L 252.896446 105.746824 
L 253.221425 91.516235 
L 253.546405 96.259765 
L 253.871384 91.516235 
L 254.196364 96.259765 
L 254.521343 91.516235 
L 255.171302 91.516235 
L 255.496282 96.259765 
L 255.821261 91.516235 
L 256.47122 110.490353 
L 256.7962 101.003294 
L 257.121179 105.746824 
L 257.446159 101.003294 
L 257.771138 105.746824 
L 258.096118 105.746824 
L 258.421097 101.003294 
L 258.746077 101.003294 
L 259.071057 110.490353 
L 259.396036 101.003294 
L 259.721016 110.490353 
L 260.045995 105.746824 
L 260.695954 105.746824 
L 261.020934 110.490353 
L 261.345913 110.490353 
L 261.995872 101.003294 
L 262.320852 101.003294 
L 262.645831 110.490353 
L 262.970811 105.746824 
L 263.29579 110.490353 
L 263.62077 105.746824 
L 264.270729 115.233882 
L 264.920688 105.746824 
L 265.895627 105.746824 
L 266.220606 110.490353 
L 266.545586 105.746824 
L 266.870565 110.490353 
L 267.520524 101.003294 
L 267.845504 105.746824 
L 269.470401 105.746824 
L 269.795381 110.490353 
L 270.12036 101.003294 
L 270.44534 110.490353 
L 270.770319 105.746824 
L 271.095299 105.746824 
L 271.420278 101.003294 
L 271.745258 105.746824 
L 272.070238 101.003294 
L 272.395217 105.746824 
L 272.720197 101.003294 
L 273.045176 105.746824 
L 273.370156 105.746824 
L 273.695135 110.490353 
L 274.020115 110.490353 
L 274.345094 101.003294 
L 274.670074 105.746824 
L 276.294971 105.746824 
L 276.619951 101.003294 
L 276.94493 105.746824 
L 277.594889 105.746824 
L 277.919869 101.003294 
L 278.244848 105.746824 
L 278.569828 105.746824 
L 279.219787 96.259765 
L 279.869746 96.259765 
L 280.194726 101.003294 
L 281.494644 101.003294 
L 281.819623 96.259765 
L 282.144603 105.746824 
L 282.469582 101.003294 
L 282.794562 105.746824 
L 283.119541 105.746824 
L 283.444521 96.259765 
L 283.7695 105.746824 
L 284.09448 101.003294 
L 284.419459 105.746824 
L 299.368518 105.746824 
L 299.693497 101.003294 
L 301.643374 101.003294 
L 301.968354 105.746824 
L 302.293333 105.746824 
L 302.618313 110.490353 
L 302.943292 110.490353 
L 303.268272 105.746824 
L 303.593251 110.490353 
L 303.918231 105.746824 
L 304.24321 115.233882 
L 304.56819 105.746824 
L 304.89317 110.490353 
L 305.543129 110.490353 
L 305.868108 105.746824 
L 307.817985 105.746824 
L 308.467944 96.259765 
L 308.792924 105.746824 
L 309.117903 110.490353 
L 309.442883 105.746824 
L 309.767862 105.746824 
L 310.092842 110.490353 
L 310.417821 105.746824 
L 311.71774 105.746824 
L 312.042719 110.490353 
L 312.692678 110.490353 
L 313.017658 105.746824 
L 313.342637 110.490353 
L 313.667617 105.746824 
L 314.642555 105.746824 
L 314.967535 110.490353 
L 315.292514 105.746824 
L 315.617494 115.233882 
L 315.942473 110.490353 
L 316.917412 110.490353 
L 317.242391 101.003294 
L 317.567371 115.233882 
L 318.21733 105.746824 
L 318.54231 115.233882 
L 318.867289 110.490353 
L 319.192269 110.490353 
L 319.517248 105.746824 
L 319.842228 105.746824 
L 320.167207 110.490353 
L 320.492187 105.746824 
L 320.817166 110.490353 
L 321.142146 101.003294 
L 321.467125 110.490353 
L 321.792105 110.490353 
L 322.117084 105.746824 
L 322.442064 110.490353 
L 322.767043 110.490353 
L 323.092023 115.233882 
L 323.417002 110.490353 
L 323.741982 110.490353 
L 324.066962 115.233882 
L 325.0419 115.233882 
L 325.36688 110.490353 
L 325.691859 115.233882 
L 326.016839 110.490353 
L 326.341818 115.233882 
L 329.266634 115.233882 
L 329.591613 110.490353 
L 330.241572 110.490353 
L 330.566552 115.233882 
L 330.891532 110.490353 
L 331.216511 115.233882 
L 331.86647 115.233882 
L 332.19145 119.977412 
L 332.841409 110.490353 
L 333.166388 119.977412 
L 333.491368 110.490353 
L 333.816347 119.977412 
L 334.141327 110.490353 
L 335.116265 124.720941 
L 335.441245 115.233882 
L 335.766224 119.977412 
L 336.416183 119.977412 
L 337.066143 110.490353 
L 337.391122 119.977412 
L 339.01602 119.977412 
L 339.340999 115.233882 
L 339.665979 105.746824 
L 340.315938 105.746824 
L 340.640917 96.259765 
L 340.965897 105.746824 
L 341.290876 96.259765 
L 341.615856 105.746824 
L 341.940835 91.516235 
L 342.265815 96.259765 
L 342.590794 96.259765 
L 342.915774 86.772706 
L 343.240753 86.772706 
L 343.565733 96.259765 
L 343.890713 96.259765 
L 344.215692 101.003294 
L 344.540672 115.233882 
L 344.865651 96.259765 
L 345.84059 96.259765 
L 346.165569 91.516235 
L 347.790467 91.516235 
L 348.115446 82.029176 
L 348.440426 96.259765 
L 349.090385 96.259765 
L 349.415364 91.516235 
L 349.740344 96.259765 
L 350.065324 96.259765 
L 350.390303 101.003294 
L 351.040262 101.003294 
L 351.365242 91.516235 
L 351.690221 96.259765 
L 352.015201 96.259765 
L 352.34018 101.003294 
L 352.990139 91.516235 
L 353.315119 101.003294 
L 353.640098 91.516235 
L 353.965078 96.259765 
L 354.290057 91.516235 
L 355.264996 91.516235 
L 355.589975 101.003294 
L 355.914955 101.003294 
L 356.239934 105.746824 
L 356.889894 105.746824 
L 357.214873 101.003294 
L 357.864832 101.003294 
L 358.189812 96.259765 
L 358.514791 101.003294 
L 358.839771 91.516235 
L 359.16475 101.003294 
L 359.48973 96.259765 
L 359.814709 101.003294 
L 360.139689 86.772706 
L 360.464668 91.516235 
L 362.089566 91.516235 
L 362.414545 96.259765 
L 362.739525 91.516235 
L 363.064505 96.259765 
L 363.389484 96.259765 
L 363.714464 91.516235 
L 365.664341 91.516235 
L 365.98932 86.772706 
L 366.3143 91.516235 
L 366.639279 86.772706 
L 366.964259 91.516235 
L 367.289238 86.772706 
L 367.614218 91.516235 
L 370.539034 91.516235 
L 370.864013 86.772706 
L 371.188993 91.516235 
L 371.513972 86.772706 
L 372.488911 86.772706 
L 372.81389 96.259765 
L 373.13887 86.772706 
L 373.463849 91.516235 
L 373.788829 86.772706 
L 374.113808 91.516235 
L 375.738706 91.516235 
L 376.063686 86.772706 
L 376.388665 86.772706 
L 376.713645 91.516235 
L 377.038624 91.516235 
L 377.363604 86.772706 
L 377.688583 91.516235 
L 379.63846 91.516235 
L 379.96344 96.259765 
L 380.288419 96.259765 
L 380.613399 91.516235 
L 381.263358 101.003294 
L 382.238296 86.772706 
L 382.888256 96.259765 
L 383.213235 91.516235 
L 383.538215 91.516235 
L 383.863194 101.003294 
L 384.188174 96.259765 
L 384.513153 86.772706 
L 388.087928 86.772706 
L 388.412907 91.516235 
L 388.737887 91.516235 
L 389.062867 86.772706 
L 389.387846 91.516235 
L 389.712826 91.516235 
L 390.037805 86.772706 
L 391.012744 86.772706 
L 391.337723 91.516235 
L 391.662703 86.772706 
L 391.987682 86.772706 
L 392.312662 91.516235 
L 392.637641 86.772706 
L 392.962621 91.516235 
L 393.2876 86.772706 
L 393.61258 86.772706 
L 393.937559 91.516235 
L 394.262539 91.516235 
L 394.587518 86.772706 
L 394.912498 96.259765 
L 395.237477 91.516235 
L 395.562457 101.003294 
L 395.887437 96.259765 
L 396.212416 96.259765 
L 396.537396 86.772706 
L 396.862375 101.003294 
L 397.187355 101.003294 
L 397.512334 96.259765 
L 398.487273 96.259765 
L 398.487273 96.259765 
" clip-path="url(#pe2bc694f14)" style="fill: none; stroke: #2ca02c; stroke-width: 1.5; stroke-linecap: square"/>
   </g>
   <g id="line2d_17">
    <path d="M 73.832727 238.881882 
L 74.157707 238.881882 
L 74.482686 247.104 
L 74.807666 236.984471 
L 75.132645 243.941647 
L 75.457625 241.411765 
L 75.782604 249.001412 
L 76.107584 242.044235 
L 76.432563 240.146824 
L 76.757543 241.411765 
L 77.082523 252.796235 
L 78.057461 228.129882 
L 78.382441 234.454588 
L 78.70742 233.189647 
L 79.0324 228.762353 
L 79.357379 235.087059 
L 79.682359 236.352 
L 80.007338 236.352 
L 80.332318 236.984471 
L 80.657297 233.822118 
L 80.982277 235.087059 
L 81.307256 235.719529 
L 81.632236 249.633882 
L 81.957215 248.368941 
L 82.282195 238.249412 
L 82.607174 238.881882 
L 82.932154 238.881882 
L 83.257133 239.514353 
L 83.582113 242.044235 
L 83.907093 237.616941 
L 84.232072 240.779294 
L 84.557052 236.352 
L 84.882031 237.616941 
L 85.207011 237.616941 
L 85.53199 239.514353 
L 85.85697 232.557176 
L 86.181949 231.924706 
L 86.506929 230.027294 
L 87.156888 233.189647 
L 87.481867 232.557176 
L 87.806847 226.864941 
L 88.131826 239.514353 
L 88.456806 234.454588 
L 88.781785 234.454588 
L 89.106765 238.249412 
L 89.431744 230.027294 
L 89.756724 231.924706 
L 90.406683 231.924706 
L 90.731663 230.027294 
L 91.056642 237.616941 
L 91.381622 229.394824 
L 91.706601 225.6 
L 92.031581 234.454588 
L 92.35656 228.129882 
L 92.68154 228.762353 
L 93.006519 226.864941 
L 93.331499 230.659765 
L 93.656478 236.352 
L 93.981458 235.719529 
L 94.306437 229.394824 
L 94.631417 231.292235 
L 94.956396 235.087059 
L 95.281376 229.394824 
L 95.606355 235.719529 
L 95.931335 233.822118 
L 96.256314 236.984471 
L 96.581294 234.454588 
L 96.906274 233.822118 
L 97.231253 232.557176 
L 97.556233 239.514353 
L 97.881212 239.514353 
L 98.206192 224.967529 
L 98.531171 227.497412 
L 98.856151 226.864941 
L 99.18113 225.6 
L 99.50611 228.762353 
L 99.831089 229.394824 
L 100.156069 229.394824 
L 100.481048 227.497412 
L 100.806028 228.129882 
L 101.131007 229.394824 
L 101.455987 226.232471 
L 101.780966 226.864941 
L 102.105946 226.232471 
L 102.430925 227.497412 
L 102.755905 229.394824 
L 103.080885 227.497412 
L 103.405864 235.087059 
L 103.730844 237.616941 
L 104.380803 235.087059 
L 105.355741 233.189647 
L 105.680721 234.454588 
L 106.0057 230.027294 
L 106.33068 233.822118 
L 106.655659 233.189647 
L 106.980639 230.659765 
L 107.305618 232.557176 
L 107.630598 233.189647 
L 107.955577 232.557176 
L 108.280557 235.719529 
L 108.605536 236.984471 
L 108.930516 231.924706 
L 109.255495 231.924706 
L 109.580475 226.232471 
L 109.905455 225.6 
L 110.230434 226.232471 
L 110.555414 227.497412 
L 110.880393 229.394824 
L 111.205373 228.129882 
L 111.855332 231.292235 
L 112.180311 230.659765 
L 112.505291 233.822118 
L 112.83027 227.497412 
L 113.15525 228.762353 
L 113.480229 227.497412 
L 113.805209 228.762353 
L 114.455168 228.762353 
L 114.780147 229.394824 
L 115.105127 224.335059 
L 115.755086 230.027294 
L 116.080066 229.394824 
L 116.405045 230.027294 
L 116.730025 221.805176 
L 117.055004 218.642824 
L 117.379984 223.702588 
L 117.704963 230.659765 
L 118.354922 227.497412 
L 118.679902 220.540235 
L 119.004881 219.907765 
L 119.329861 221.172706 
L 119.65484 223.702588 
L 119.97982 223.702588 
L 120.304799 226.232471 
L 120.629779 225.6 
L 120.954758 223.070118 
L 121.279738 224.967529 
L 121.604717 224.967529 
L 121.929697 222.437647 
L 122.254676 225.6 
L 122.579656 230.027294 
L 122.904636 216.745412 
L 123.229615 221.805176 
L 123.554595 212.318118 
L 124.204554 211.053176 
L 124.529533 212.318118 
L 124.854513 209.155765 
L 125.179492 209.788235 
L 125.504472 212.950588 
L 125.829451 214.848 
L 126.154431 214.215529 
L 126.47941 212.318118 
L 126.80439 209.155765 
L 127.129369 208.523294 
L 127.454349 206.625882 
L 127.779328 213.583059 
L 128.104308 212.950588 
L 128.429287 213.583059 
L 128.754267 212.950588 
L 129.079247 216.745412 
L 129.404226 215.480471 
L 129.729206 216.112941 
L 130.054185 211.053176 
L 130.379165 210.420706 
L 130.704144 211.685647 
L 131.029124 209.788235 
L 131.354103 212.318118 
L 131.679083 209.788235 
L 132.004062 209.155765 
L 132.654021 217.377882 
L 132.979001 218.010353 
L 133.30398 216.745412 
L 133.62896 217.377882 
L 133.953939 216.745412 
L 134.278919 213.583059 
L 134.603898 212.318118 
L 134.928878 214.848 
L 135.253857 210.420706 
L 135.578837 213.583059 
L 135.903817 211.053176 
L 136.228796 214.215529 
L 136.553776 211.685647 
L 136.878755 214.215529 
L 137.203735 215.480471 
L 137.528714 215.480471 
L 137.853694 216.745412 
L 138.178673 213.583059 
L 138.503653 212.950588 
L 138.828632 212.950588 
L 139.478591 214.215529 
L 139.803571 212.950588 
L 140.12855 212.950588 
L 140.45353 209.155765 
L 141.103489 214.848 
L 141.428468 213.583059 
L 141.753448 212.950588 
L 142.078428 213.583059 
L 142.403407 214.848 
L 142.728387 211.685647 
L 143.053366 212.950588 
L 143.378346 211.053176 
L 143.703325 214.848 
L 144.028305 216.112941 
L 144.353284 207.890824 
L 145.003243 216.112941 
L 145.653202 216.112941 
L 145.978182 214.215529 
L 146.628141 215.480471 
L 147.2781 214.215529 
L 147.928059 209.788235 
L 148.253038 212.318118 
L 148.578018 212.318118 
L 148.902998 208.523294 
L 149.227977 212.950588 
L 149.552957 212.950588 
L 149.877936 213.583059 
L 150.527895 208.523294 
L 150.852875 207.258353 
L 151.177854 207.890824 
L 151.827813 206.625882 
L 152.152793 209.155765 
L 152.477772 208.523294 
L 152.802752 212.318118 
L 153.127731 213.583059 
L 153.452711 211.685647 
L 153.77769 211.685647 
L 154.10267 212.950588 
L 154.427649 210.420706 
L 154.752629 210.420706 
L 155.077609 212.950588 
L 155.727568 212.950588 
L 156.052547 213.583059 
L 156.377527 212.950588 
L 156.702506 211.053176 
L 157.352465 217.377882 
L 157.677445 217.377882 
L 158.002424 215.480471 
L 158.327404 219.907765 
L 158.652383 216.745412 
L 158.977363 217.377882 
L 159.302342 210.420706 
L 159.627322 210.420706 
L 159.952301 221.805176 
L 160.277281 211.053176 
L 160.60226 212.318118 
L 160.92724 211.053176 
L 161.252219 210.420706 
L 161.577199 212.318118 
L 161.902179 211.685647 
L 162.227158 212.318118 
L 162.552138 211.685647 
L 162.877117 212.950588 
L 163.202097 211.053176 
L 163.852056 214.848 
L 164.177035 210.420706 
L 164.502015 214.848 
L 165.151974 212.318118 
L 165.801933 209.155765 
L 166.126912 211.053176 
L 166.451892 209.155765 
L 166.776871 205.993412 
L 167.101851 208.523294 
L 167.42683 207.258353 
L 167.75181 207.890824 
L 168.07679 205.993412 
L 168.401769 205.360941 
L 168.726749 207.890824 
L 169.051728 208.523294 
L 169.376708 209.788235 
L 169.701687 208.523294 
L 170.026667 207.890824 
L 170.351646 210.420706 
L 170.676626 209.155765 
L 171.001605 211.685647 
L 171.326585 207.890824 
L 171.651564 208.523294 
L 171.976544 211.053176 
L 172.301523 206.625882 
L 172.626503 209.788235 
L 172.951482 208.523294 
L 173.276462 211.053176 
L 173.601441 206.625882 
L 173.926421 209.788235 
L 174.2514 209.155765 
L 174.57638 211.053176 
L 174.90136 208.523294 
L 175.551319 207.258353 
L 175.876298 208.523294 
L 176.201278 213.583059 
L 176.526257 214.215529 
L 176.851237 213.583059 
L 177.176216 209.788235 
L 177.501196 214.848 
L 178.151155 214.848 
L 178.476134 212.318118 
L 178.801114 213.583059 
L 179.126093 212.318118 
L 179.451073 211.685647 
L 179.776052 213.583059 
L 180.101032 212.950588 
L 180.426011 215.480471 
L 180.750991 210.420706 
L 181.075971 208.523294 
L 181.40095 208.523294 
L 181.72593 218.010353 
L 182.050909 216.112941 
L 182.375889 212.318118 
L 182.700868 214.848 
L 183.025848 212.950588 
L 183.350827 213.583059 
L 183.675807 212.950588 
L 184.000786 212.950588 
L 184.325766 213.583059 
L 184.650745 211.685647 
L 184.975725 211.685647 
L 185.300704 212.318118 
L 185.950663 212.318118 
L 186.275643 208.523294 
L 186.600622 208.523294 
L 186.925602 209.155765 
L 187.250581 209.155765 
L 187.575561 220.540235 
L 187.900541 209.155765 
L 188.22552 205.993412 
L 188.5505 204.096 
L 189.200459 204.096 
L 189.525438 205.360941 
L 189.850418 212.318118 
L 190.175397 212.318118 
L 190.500377 210.420706 
L 190.825356 210.420706 
L 191.150336 214.215529 
L 191.475315 210.420706 
L 191.800295 211.685647 
L 192.125274 211.053176 
L 192.450254 211.685647 
L 192.775233 214.848 
L 193.100213 210.420706 
L 193.425192 209.788235 
L 193.750172 213.583059 
L 194.075152 211.053176 
L 194.400131 212.950588 
L 194.725111 212.950588 
L 195.05009 210.420706 
L 195.37507 212.950588 
L 195.700049 211.053176 
L 196.025029 212.950588 
L 196.350008 212.318118 
L 196.674988 212.318118 
L 196.999967 209.788235 
L 197.324947 213.583059 
L 197.974906 214.848 
L 198.299885 209.155765 
L 198.624865 215.480471 
L 198.949844 211.685647 
L 199.274824 212.318118 
L 199.599803 210.420706 
L 199.924783 209.788235 
L 200.249762 211.053176 
L 200.574742 209.788235 
L 201.224701 211.053176 
L 201.549681 211.053176 
L 201.87466 211.685647 
L 202.19964 209.788235 
L 202.524619 209.788235 
L 202.849599 211.053176 
L 203.174578 210.420706 
L 203.499558 208.523294 
L 203.824537 211.053176 
L 204.149517 209.155765 
L 204.474496 209.788235 
L 204.799476 209.155765 
L 205.124455 212.318118 
L 205.449435 212.950588 
L 205.774414 211.053176 
L 206.099394 216.112941 
L 206.424373 218.642824 
L 206.749353 218.010353 
L 207.074333 213.583059 
L 207.399312 216.745412 
L 207.724292 215.480471 
L 208.049271 214.848 
L 208.374251 214.848 
L 208.69923 212.318118 
L 209.02421 214.215529 
L 209.349189 212.318118 
L 209.674169 213.583059 
L 209.999148 215.480471 
L 210.324128 215.480471 
L 210.649107 214.215529 
L 210.974087 214.215529 
L 211.299066 214.848 
L 211.624046 213.583059 
L 211.949025 212.950588 
L 212.274005 214.215529 
L 212.598984 212.318118 
L 212.923964 213.583059 
L 213.248943 211.053176 
L 213.573923 212.318118 
L 213.898903 211.685647 
L 214.223882 212.318118 
L 214.873841 211.053176 
L 215.198821 212.318118 
L 215.5238 214.215529 
L 215.84878 213.583059 
L 216.173759 212.318118 
L 216.498739 212.950588 
L 216.823718 212.950588 
L 217.148698 211.053176 
L 217.473677 210.420706 
L 217.798657 210.420706 
L 218.123636 211.685647 
L 218.448616 212.318118 
L 218.773595 215.480471 
L 219.423554 207.890824 
L 219.748534 209.788235 
L 220.073514 216.745412 
L 220.398493 214.215529 
L 220.723473 214.215529 
L 221.048452 209.155765 
L 221.373432 212.318118 
L 221.698411 222.437647 
L 222.023391 215.480471 
L 222.34837 213.583059 
L 222.67335 216.112941 
L 223.323309 214.848 
L 223.648288 211.685647 
L 223.973268 210.420706 
L 224.298247 212.950588 
L 224.623227 212.950588 
L 224.948206 214.215529 
L 225.273186 214.215529 
L 225.598165 215.480471 
L 225.923145 214.215529 
L 226.248124 215.480471 
L 226.573104 210.420706 
L 226.898084 212.950588 
L 227.223063 213.583059 
L 227.548043 216.745412 
L 227.873022 211.053176 
L 228.198002 212.950588 
L 228.522981 208.523294 
L 228.847961 211.685647 
L 229.17294 209.788235 
L 229.822899 208.523294 
L 230.147879 216.112941 
L 230.472858 213.583059 
L 230.797838 212.318118 
L 231.122817 213.583059 
L 231.447797 216.745412 
L 231.772776 215.480471 
L 232.097756 217.377882 
L 232.422735 210.420706 
L 232.747715 211.685647 
L 233.072695 212.318118 
L 233.397674 213.583059 
L 233.722654 213.583059 
L 234.047633 212.318118 
L 234.372613 210.420706 
L 234.697592 210.420706 
L 235.022572 212.318118 
L 235.347551 212.318118 
L 235.99751 214.848 
L 236.32249 215.480471 
L 236.647469 211.685647 
L 236.972449 213.583059 
L 237.297428 211.053176 
L 237.622408 211.053176 
L 237.947387 212.318118 
L 238.272367 212.318118 
L 238.597346 212.950588 
L 238.922326 210.420706 
L 239.247305 214.848 
L 239.897265 213.583059 
L 240.222244 213.583059 
L 240.547224 214.215529 
L 240.872203 212.318118 
L 241.197183 212.950588 
L 241.522162 214.848 
L 242.172121 214.848 
L 242.497101 212.950588 
L 242.82208 214.848 
L 243.14706 214.215529 
L 243.472039 216.112941 
L 243.797019 214.215529 
L 244.121998 215.480471 
L 244.446978 215.480471 
L 244.771957 217.377882 
L 245.096937 214.848 
L 245.421916 216.112941 
L 245.746896 214.848 
L 246.071876 215.480471 
L 246.396855 211.685647 
L 246.721835 210.420706 
L 247.046814 212.950588 
L 247.371794 212.318118 
L 247.696773 212.318118 
L 248.021753 211.053176 
L 248.346732 211.053176 
L 248.671712 214.215529 
L 249.321671 214.215529 
L 249.97163 212.950588 
L 250.621589 212.950588 
L 250.946568 214.848 
L 251.271548 219.907765 
L 251.596527 218.642824 
L 251.921507 218.642824 
L 252.246486 214.848 
L 252.571466 217.377882 
L 252.896446 214.848 
L 253.221425 214.215529 
L 253.546405 214.848 
L 253.871384 213.583059 
L 254.196364 213.583059 
L 254.521343 214.848 
L 254.846323 212.318118 
L 255.171302 212.318118 
L 255.496282 214.215529 
L 255.821261 212.950588 
L 256.146241 213.583059 
L 256.47122 214.848 
L 257.121179 213.583059 
L 257.446159 216.112941 
L 257.771138 216.745412 
L 258.421097 212.950588 
L 259.071057 221.172706 
L 259.396036 220.540235 
L 259.721016 215.480471 
L 260.045995 215.480471 
L 260.370975 221.805176 
L 260.695954 216.745412 
L 261.345913 216.745412 
L 261.670893 216.112941 
L 262.320852 216.112941 
L 262.645831 217.377882 
L 262.970811 216.745412 
L 263.29579 214.848 
L 263.62077 216.745412 
L 263.945749 215.480471 
L 264.270729 215.480471 
L 264.595708 218.010353 
L 264.920688 214.215529 
L 265.245667 215.480471 
L 265.570647 215.480471 
L 265.895627 216.112941 
L 266.220606 216.112941 
L 266.545586 219.907765 
L 266.870565 218.642824 
L 267.195545 214.215529 
L 267.520524 212.950588 
L 267.845504 212.950588 
L 268.170483 209.155765 
L 268.495463 211.685647 
L 268.820442 215.480471 
L 269.145422 212.950588 
L 269.470401 213.583059 
L 269.795381 212.950588 
L 270.12036 210.420706 
L 270.44534 209.788235 
L 270.770319 218.642824 
L 271.095299 201.566118 
L 271.745258 212.950588 
L 272.070238 210.420706 
L 272.395217 211.053176 
L 272.720197 206.625882 
L 273.045176 207.890824 
L 273.370156 206.625882 
L 273.695135 207.258353 
L 274.020115 207.258353 
L 274.345094 206.625882 
L 274.670074 204.728471 
L 274.995053 206.625882 
L 275.645012 206.625882 
L 275.969992 207.258353 
L 276.294971 208.523294 
L 276.619951 205.993412 
L 276.94493 206.625882 
L 277.26991 205.360941 
L 277.594889 206.625882 
L 277.919869 204.728471 
L 278.244848 206.625882 
L 278.569828 206.625882 
L 279.219787 204.096 
L 279.544767 204.728471 
L 279.869746 204.728471 
L 280.194726 205.993412 
L 280.519705 205.360941 
L 280.844685 206.625882 
L 281.169664 204.728471 
L 281.494644 206.625882 
L 281.819623 203.463529 
L 282.144603 205.360941 
L 282.469582 205.360941 
L 282.794562 204.728471 
L 283.119541 205.360941 
L 283.444521 208.523294 
L 283.7695 200.301176 
L 284.09448 199.668706 
L 284.419459 205.360941 
L 284.744439 200.933647 
L 285.069419 201.566118 
L 285.394398 201.566118 
L 285.719378 202.198588 
L 286.044357 206.625882 
L 286.369337 206.625882 
L 286.694316 205.993412 
L 287.344275 207.258353 
L 287.669255 209.155765 
L 287.994234 209.155765 
L 288.319214 202.831059 
L 288.644193 207.258353 
L 288.969173 204.096 
L 289.294152 207.258353 
L 289.619132 202.198588 
L 289.944111 205.360941 
L 290.269091 206.625882 
L 290.59407 205.360941 
L 291.244029 207.890824 
L 291.893989 204.728471 
L 292.218968 203.463529 
L 292.543948 203.463529 
L 292.868927 202.198588 
L 293.193907 202.831059 
L 293.843866 199.668706 
L 294.168845 201.566118 
L 294.493825 201.566118 
L 294.818804 200.933647 
L 295.143784 199.668706 
L 295.468763 202.831059 
L 295.793743 202.831059 
L 296.118722 203.463529 
L 296.443702 203.463529 
L 296.768681 200.301176 
L 297.093661 201.566118 
L 297.41864 200.933647 
L 297.74362 202.831059 
L 298.0686 200.933647 
L 298.393579 203.463529 
L 298.718559 200.933647 
L 299.043538 202.831059 
L 299.368518 201.566118 
L 299.693497 202.198588 
L 300.018477 202.198588 
L 300.343456 200.301176 
L 300.668436 200.933647 
L 300.993415 202.831059 
L 301.318395 202.198588 
L 301.643374 202.831059 
L 301.968354 202.198588 
L 302.293333 202.831059 
L 302.618313 202.831059 
L 302.943292 202.198588 
L 303.268272 200.933647 
L 303.593251 200.301176 
L 303.918231 201.566118 
L 304.24321 202.198588 
L 304.89317 202.198588 
L 305.218149 201.566118 
L 305.543129 197.771294 
L 305.868108 196.506353 
L 306.518067 200.933647 
L 306.843047 198.403765 
L 307.168026 197.771294 
L 307.493006 202.198588 
L 307.817985 202.831059 
L 308.142965 202.198588 
L 308.467944 197.771294 
L 308.792924 204.096 
L 309.442883 204.096 
L 310.742801 196.506353 
L 311.067781 196.506353 
L 311.39276 197.138824 
L 311.71774 199.036235 
L 312.042719 198.403765 
L 312.367699 200.933647 
L 312.692678 199.036235 
L 313.017658 199.036235 
L 313.342637 198.403765 
L 313.667617 199.036235 
L 313.992596 200.301176 
L 314.317576 200.301176 
L 314.642555 201.566118 
L 314.967535 201.566118 
L 315.617494 200.301176 
L 315.942473 197.771294 
L 316.267453 199.036235 
L 316.917412 196.506353 
L 317.242391 195.873882 
L 317.567371 199.668706 
L 317.892351 200.933647 
L 318.21733 200.301176 
L 318.867289 201.566118 
L 319.192269 200.933647 
L 319.517248 206.625882 
L 319.842228 204.096 
L 320.167207 205.360941 
L 320.492187 207.890824 
L 320.817166 207.890824 
L 321.142146 201.566118 
L 321.792105 197.771294 
L 322.117084 197.771294 
L 322.442064 206.625882 
L 322.767043 198.403765 
L 323.092023 199.668706 
L 323.417002 200.301176 
L 323.741982 204.096 
L 324.066962 203.463529 
L 324.391941 204.096 
L 324.716921 202.831059 
L 325.0419 204.096 
L 325.36688 204.728471 
L 325.691859 204.096 
L 326.016839 202.198588 
L 326.341818 202.831059 
L 326.666798 201.566118 
L 326.991777 202.198588 
L 327.316757 201.566118 
L 327.641736 202.831059 
L 327.966716 199.036235 
L 328.291695 199.036235 
L 328.616675 202.831059 
L 328.941654 198.403765 
L 329.266634 199.036235 
L 329.591613 199.036235 
L 329.916593 197.771294 
L 330.566552 196.506353 
L 330.891532 199.668706 
L 331.216511 199.036235 
L 331.541491 207.890824 
L 331.86647 193.344 
L 332.19145 202.831059 
L 332.516429 199.668706 
L 333.166388 198.403765 
L 333.491368 200.933647 
L 334.141327 200.933647 
L 334.466306 204.096 
L 334.791286 199.036235 
L 335.116265 200.301176 
L 335.441245 200.301176 
L 335.766224 199.036235 
L 336.091204 200.933647 
L 336.416183 205.360941 
L 336.741163 204.728471 
L 337.391122 200.933647 
L 337.716102 202.198588 
L 338.041081 196.506353 
L 338.366061 208.523294 
L 338.69104 208.523294 
L 339.01602 190.181647 
L 339.340999 198.403765 
L 339.665979 197.138824 
L 340.315938 195.873882 
L 340.640917 199.036235 
L 340.965897 197.771294 
L 341.290876 197.771294 
L 341.615856 199.668706 
L 341.940835 199.668706 
L 342.265815 200.301176 
L 342.590794 199.036235 
L 342.915774 197.138824 
L 343.240753 204.096 
L 343.565733 199.668706 
L 343.890713 193.344 
L 344.215692 200.301176 
L 344.540672 200.301176 
L 344.865651 193.976471 
L 345.190631 199.036235 
L 345.51561 199.036235 
L 345.84059 195.873882 
L 346.165569 197.138824 
L 346.490549 195.873882 
L 346.815528 196.506353 
L 347.140508 195.241412 
L 347.465487 195.241412 
L 347.790467 199.668706 
L 348.115446 195.241412 
L 348.440426 195.241412 
L 348.765405 199.668706 
L 349.090385 200.933647 
L 349.415364 197.771294 
L 349.740344 200.301176 
L 350.065324 196.506353 
L 350.390303 199.036235 
L 350.715283 196.506353 
L 351.040262 197.138824 
L 351.365242 196.506353 
L 351.690221 194.608941 
L 352.015201 197.771294 
L 352.34018 199.036235 
L 352.66516 199.036235 
L 352.990139 198.403765 
L 353.315119 201.566118 
L 353.640098 203.463529 
L 353.965078 202.198588 
L 354.290057 201.566118 
L 354.615037 203.463529 
L 354.940016 198.403765 
L 355.264996 197.771294 
L 355.589975 198.403765 
L 355.914955 197.138824 
L 356.239934 200.933647 
L 356.564914 199.668706 
L 356.889894 202.198588 
L 357.214873 201.566118 
L 357.539853 195.241412 
L 358.189812 195.241412 
L 358.839771 198.403765 
L 359.48973 198.403765 
L 359.814709 199.668706 
L 360.139689 199.668706 
L 360.464668 199.036235 
L 360.789648 199.668706 
L 361.114627 197.771294 
L 361.439607 198.403765 
L 361.764586 193.344 
L 362.089566 192.079059 
L 362.414545 195.241412 
L 362.739525 196.506353 
L 363.064505 195.241412 
L 363.389484 196.506353 
L 363.714464 197.138824 
L 364.364423 197.138824 
L 364.689402 199.036235 
L 365.014382 197.771294 
L 365.339361 199.036235 
L 365.664341 198.403765 
L 365.98932 200.933647 
L 366.3143 197.138824 
L 366.639279 200.933647 
L 366.964259 200.933647 
L 367.289238 199.668706 
L 367.614218 197.771294 
L 367.939197 197.138824 
L 368.264177 199.036235 
L 368.589156 197.771294 
L 369.564095 197.771294 
L 369.889075 198.403765 
L 370.214054 202.831059 
L 370.539034 199.036235 
L 370.864013 200.933647 
L 371.188993 195.873882 
L 371.513972 194.608941 
L 371.838952 199.668706 
L 372.163931 199.036235 
L 372.488911 199.036235 
L 372.81389 196.506353 
L 373.463849 200.933647 
L 374.113808 196.506353 
L 374.438788 199.668706 
L 374.763767 197.771294 
L 375.088747 197.771294 
L 375.413726 200.301176 
L 375.738706 198.403765 
L 376.063686 200.301176 
L 376.388665 200.301176 
L 376.713645 199.668706 
L 377.038624 201.566118 
L 377.363604 200.301176 
L 378.013563 199.036235 
L 378.338542 200.933647 
L 378.663522 198.403765 
L 379.63846 200.301176 
L 379.96344 199.036235 
L 380.288419 199.036235 
L 380.613399 199.668706 
L 380.938378 199.036235 
L 381.263358 199.668706 
L 381.588337 199.668706 
L 381.913317 199.036235 
L 382.238296 199.668706 
L 382.563276 201.566118 
L 383.213235 200.301176 
L 383.538215 200.933647 
L 383.863194 199.668706 
L 384.188174 199.036235 
L 384.513153 200.301176 
L 385.163112 200.301176 
L 385.488092 199.668706 
L 386.138051 199.668706 
L 386.46303 201.566118 
L 386.78801 200.301176 
L 387.112989 200.933647 
L 387.437969 200.933647 
L 387.762948 197.771294 
L 388.087928 197.138824 
L 388.412907 202.831059 
L 389.062867 201.566118 
L 389.387846 200.301176 
L 389.712826 200.301176 
L 390.362785 195.873882 
L 390.687764 197.138824 
L 391.012744 195.241412 
L 391.337723 195.873882 
L 391.662703 194.608941 
L 391.987682 195.241412 
L 392.312662 197.771294 
L 392.637641 195.873882 
L 392.962621 197.138824 
L 393.2876 199.036235 
L 393.61258 199.668706 
L 393.937559 198.403765 
L 394.262539 199.668706 
L 394.587518 195.873882 
L 394.912498 199.036235 
L 395.887437 199.036235 
L 396.212416 197.138824 
L 396.862375 199.668706 
L 397.187355 194.608941 
L 397.512334 193.344 
L 398.162293 195.873882 
L 398.487273 196.506353 
L 398.487273 196.506353 
" clip-path="url(#pe2bc694f14)" style="fill: none; stroke: #d62728; stroke-width: 1.5; stroke-linecap: square"/>
   </g>
   <g id="patch_3">
    <path d="M 57.6 307.584 
L 57.6 41.472 
" style="fill: none; stroke: #000000; stroke-width: 0.8; stroke-linejoin: miter; stroke-linecap: square"/>
   </g>
   <g id="patch_4">
    <path d="M 414.72 307.584 
L 414.72 41.472 
" style="fill: none; stroke: #000000; stroke-width: 0.8; stroke-linejoin: miter; stroke-linecap: square"/>
   </g>
   <g id="patch_5">
    <path d="M 57.6 307.584 
L 414.72 307.584 
" style="fill: none; stroke: #000000; stroke-width: 0.8; stroke-linejoin: miter; stroke-linecap: square"/>
   </g>
   <g id="patch_6">
    <path d="M 57.6 41.472 
L 414.72 41.472 
" style="fill: none; stroke: #000000; stroke-width: 0.8; stroke-linejoin: miter; stroke-linecap: square"/>
   </g>
   <g id="text_16">
    <!-- Boosting accuracy per boosting iteration -->
    <g transform="translate(83.489297 26.472)scale(0.15 -0.15)">
     <defs>
      <path id="DejaVuSans-42" d="M 1259 2228 
L 1259 519 
L 2272 519 
Q 2781 519 3026 730 
Q 3272 941 3272 1375 
Q 3272 1813 3026 2020 
Q 2781 2228 2272 2228 
L 1259 2228 
z
M 1259 4147 
L 1259 2741 
L 2194 2741 
Q 2656 2741 2882 2914 
Q 3109 3088 3109 3444 
Q 3109 3797 2882 3972 
Q 2656 4147 2194 4147 
L 1259 4147 
z
M 628 4666 
L 2241 4666 
Q 2963 4666 3353 4366 
Q 3744 4066 3744 3513 
Q 3744 3084 3544 2831 
Q 3344 2578 2956 2516 
Q 3422 2416 3680 2098 
Q 3938 1781 3938 1306 
Q 3938 681 3513 340 
Q 3088 0 2303 0 
L 628 0 
L 628 4666 
z
" transform="scale(0.015625)"/>
      <path id="DejaVuSans-73" d="M 2834 3397 
L 2834 2853 
Q 2591 2978 2328 3040 
Q 2066 3103 1784 3103 
Q 1356 3103 1142 2972 
Q 928 2841 928 2578 
Q 928 2378 1081 2264 
Q 1234 2150 1697 2047 
L 1894 2003 
Q 2506 1872 2764 1633 
Q 3022 1394 3022 966 
Q 3022 478 2636 193 
Q 2250 -91 1575 -91 
Q 1294 -91 989 -36 
Q 684 19 347 128 
L 347 722 
Q 666 556 975 473 
Q 1284 391 1588 391 
Q 1994 391 2212 530 
Q 2431 669 2431 922 
Q 2431 1156 2273 1281 
Q 2116 1406 1581 1522 
L 1381 1569 
Q 847 1681 609 1914 
Q 372 2147 372 2553 
Q 372 3047 722 3315 
Q 1072 3584 1716 3584 
Q 2034 3584 2315 3537 
Q 2597 3491 2834 3397 
z
" transform="scale(0.015625)"/>
      <path id="DejaVuSans-67" d="M 2906 1791 
Q 2906 2416 2648 2759 
Q 2391 3103 1925 3103 
Q 1463 3103 1205 2759 
Q 947 2416 947 1791 
Q 947 1169 1205 825 
Q 1463 481 1925 481 
Q 2391 481 2648 825 
Q 2906 1169 2906 1791 
z
M 3481 434 
Q 3481 -459 3084 -895 
Q 2688 -1331 1869 -1331 
Q 1566 -1331 1297 -1286 
Q 1028 -1241 775 -1147 
L 775 -588 
Q 1028 -725 1275 -790 
Q 1522 -856 1778 -856 
Q 2344 -856 2625 -561 
Q 2906 -266 2906 331 
L 2906 616 
Q 2728 306 2450 153 
Q 2172 0 1784 0 
Q 1141 0 747 490 
Q 353 981 353 1791 
Q 353 2603 747 3093 
Q 1141 3584 1784 3584 
Q 2172 3584 2450 3431 
Q 2728 3278 2906 2969 
L 2906 3500 
L 3481 3500 
L 3481 434 
z
" transform="scale(0.015625)"/>
      <path id="DejaVuSans-20" transform="scale(0.015625)"/>
      <path id="DejaVuSans-70" d="M 1159 525 
L 1159 -1331 
L 581 -1331 
L 581 3500 
L 1159 3500 
L 1159 2969 
Q 1341 3281 1617 3432 
Q 1894 3584 2278 3584 
Q 2916 3584 3314 3078 
Q 3713 2572 3713 1747 
Q 3713 922 3314 415 
Q 2916 -91 2278 -91 
Q 1894 -91 1617 61 
Q 1341 213 1159 525 
z
M 3116 1747 
Q 3116 2381 2855 2742 
Q 2594 3103 2138 3103 
Q 1681 3103 1420 2742 
Q 1159 2381 1159 1747 
Q 1159 1113 1420 752 
Q 1681 391 2138 391 
Q 2594 391 2855 752 
Q 3116 1113 3116 1747 
z
" transform="scale(0.015625)"/>
      <path id="DejaVuSans-62" d="M 3116 1747 
Q 3116 2381 2855 2742 
Q 2594 3103 2138 3103 
Q 1681 3103 1420 2742 
Q 1159 2381 1159 1747 
Q 1159 1113 1420 752 
Q 1681 391 2138 391 
Q 2594 391 2855 752 
Q 3116 1113 3116 1747 
z
M 1159 2969 
Q 1341 3281 1617 3432 
Q 1894 3584 2278 3584 
Q 2916 3584 3314 3078 
Q 3713 2572 3713 1747 
Q 3713 922 3314 415 
Q 2916 -91 2278 -91 
Q 1894 -91 1617 61 
Q 1341 213 1159 525 
L 1159 0 
L 581 0 
L 581 4863 
L 1159 4863 
L 1159 2969 
z
" transform="scale(0.015625)"/>
     </defs>
     <use xlink:href="#DejaVuSans-42"/>
     <use xlink:href="#DejaVuSans-6f" x="68.603516"/>
     <use xlink:href="#DejaVuSans-6f" x="129.785156"/>
     <use xlink:href="#DejaVuSans-73" x="190.966797"/>
     <use xlink:href="#DejaVuSans-74" x="243.066406"/>
     <use xlink:href="#DejaVuSans-69" x="282.275391"/>
     <use xlink:href="#DejaVuSans-6e" x="310.058594"/>
     <use xlink:href="#DejaVuSans-67" x="373.4375"/>
     <use xlink:href="#DejaVuSans-20" x="436.914062"/>
     <use xlink:href="#DejaVuSans-61" x="468.701172"/>
     <use xlink:href="#DejaVuSans-63" x="529.980469"/>
     <use xlink:href="#DejaVuSans-63" x="584.960938"/>
     <use xlink:href="#DejaVuSans-75" x="639.941406"/>
     <use xlink:href="#DejaVuSans-72" x="703.320312"/>
     <use xlink:href="#DejaVuSans-61" x="744.433594"/>
     <use xlink:href="#DejaVuSans-63" x="805.712891"/>
     <use xlink:href="#DejaVuSans-79" x="860.693359"/>
     <use xlink:href="#DejaVuSans-20" x="919.873047"/>
     <use xlink:href="#DejaVuSans-70" x="951.660156"/>
     <use xlink:href="#DejaVuSans-65" x="1015.136719"/>
     <use xlink:href="#DejaVuSans-72" x="1076.660156"/>
     <use xlink:href="#DejaVuSans-20" x="1117.773438"/>
     <use xlink:href="#DejaVuSans-62" x="1149.560547"/>
     <use xlink:href="#DejaVuSans-6f" x="1213.037109"/>
     <use xlink:href="#DejaVuSans-6f" x="1274.21875"/>
     <use xlink:href="#DejaVuSans-73" x="1335.400391"/>
     <use xlink:href="#DejaVuSans-74" x="1387.5"/>
     <use xlink:href="#DejaVuSans-69" x="1426.708984"/>
     <use xlink:href="#DejaVuSans-6e" x="1454.492188"/>
     <use xlink:href="#DejaVuSans-67" x="1517.871094"/>
     <use xlink:href="#DejaVuSans-20" x="1581.347656"/>
     <use xlink:href="#DejaVuSans-69" x="1613.134766"/>
     <use xlink:href="#DejaVuSans-74" x="1640.917969"/>
     <use xlink:href="#DejaVuSans-65" x="1680.126953"/>
     <use xlink:href="#DejaVuSans-72" x="1741.650391"/>
     <use xlink:href="#DejaVuSans-61" x="1782.763672"/>
     <use xlink:href="#DejaVuSans-74" x="1844.042969"/>
     <use xlink:href="#DejaVuSans-69" x="1883.251953"/>
     <use xlink:href="#DejaVuSans-6f" x="1911.035156"/>
     <use xlink:href="#DejaVuSans-6e" x="1972.216797"/>
    </g>
   </g>
   <g id="legend_1">
    <g id="patch_7">
     <path d="M 318.25 302.084 
L 407.02 302.084 
Q 409.22 302.084 409.22 299.884 
L 409.22 236.40025 
Q 409.22 234.20025 407.02 234.20025 
L 318.25 234.20025 
Q 316.05 234.20025 316.05 236.40025 
L 316.05 299.884 
Q 316.05 302.084 318.25 302.084 
z
" style="fill: #ffffff; opacity: 0.8; stroke: #cccccc; stroke-linejoin: miter"/>
    </g>
    <g id="line2d_18">
     <path d="M 320.45 243.108531 
L 331.45 243.108531 
L 342.45 243.108531 
" style="fill: none; stroke: #1f77b4; stroke-width: 1.5; stroke-linecap: square"/>
    </g>
    <g id="text_17">
     <!-- Dataset 1 -->
     <g transform="translate(351.25 246.958531)scale(0.11 -0.11)">
      <defs>
       <path id="DejaVuSans-44" d="M 1259 4147 
L 1259 519 
L 2022 519 
Q 2988 519 3436 956 
Q 3884 1394 3884 2338 
Q 3884 3275 3436 3711 
Q 2988 4147 2022 4147 
L 1259 4147 
z
M 628 4666 
L 1925 4666 
Q 3281 4666 3915 4102 
Q 4550 3538 4550 2338 
Q 4550 1131 3912 565 
Q 3275 0 1925 0 
L 628 0 
L 628 4666 
z
" transform="scale(0.015625)"/>
      </defs>
      <use xlink:href="#DejaVuSans-44"/>
      <use xlink:href="#DejaVuSans-61" x="77.001953"/>
      <use xlink:href="#DejaVuSans-74" x="138.28125"/>
      <use xlink:href="#DejaVuSans-61" x="177.490234"/>
      <use xlink:href="#DejaVuSans-73" x="238.769531"/>
      <use xlink:href="#DejaVuSans-65" x="290.869141"/>
      <use xlink:href="#DejaVuSans-74" x="352.392578"/>
      <use xlink:href="#DejaVuSans-20" x="391.601562"/>
      <use xlink:href="#DejaVuSans-31" x="423.388672"/>
     </g>
    </g>
    <g id="line2d_19">
     <path d="M 320.45 259.254469 
L 331.45 259.254469 
L 342.45 259.254469 
" style="fill: none; stroke: #ff7f0e; stroke-width: 1.5; stroke-linecap: square"/>
    </g>
    <g id="text_18">
     <!-- Dataset 2 -->
     <g transform="translate(351.25 263.104469)scale(0.11 -0.11)">
      <use xlink:href="#DejaVuSans-44"/>
      <use xlink:href="#DejaVuSans-61" x="77.001953"/>
      <use xlink:href="#DejaVuSans-74" x="138.28125"/>
      <use xlink:href="#DejaVuSans-61" x="177.490234"/>
      <use xlink:href="#DejaVuSans-73" x="238.769531"/>
      <use xlink:href="#DejaVuSans-65" x="290.869141"/>
      <use xlink:href="#DejaVuSans-74" x="352.392578"/>
      <use xlink:href="#DejaVuSans-20" x="391.601562"/>
      <use xlink:href="#DejaVuSans-32" x="423.388672"/>
     </g>
    </g>
    <g id="line2d_20">
     <path d="M 320.45 275.400406 
L 331.45 275.400406 
L 342.45 275.400406 
" style="fill: none; stroke: #2ca02c; stroke-width: 1.5; stroke-linecap: square"/>
    </g>
    <g id="text_19">
     <!-- Dataset 3 -->
     <g transform="translate(351.25 279.250406)scale(0.11 -0.11)">
      <defs>
       <path id="DejaVuSans-33" d="M 2597 2516 
Q 3050 2419 3304 2112 
Q 3559 1806 3559 1356 
Q 3559 666 3084 287 
Q 2609 -91 1734 -91 
Q 1441 -91 1130 -33 
Q 819 25 488 141 
L 488 750 
Q 750 597 1062 519 
Q 1375 441 1716 441 
Q 2309 441 2620 675 
Q 2931 909 2931 1356 
Q 2931 1769 2642 2001 
Q 2353 2234 1838 2234 
L 1294 2234 
L 1294 2753 
L 1863 2753 
Q 2328 2753 2575 2939 
Q 2822 3125 2822 3475 
Q 2822 3834 2567 4026 
Q 2313 4219 1838 4219 
Q 1578 4219 1281 4162 
Q 984 4106 628 3988 
L 628 4550 
Q 988 4650 1302 4700 
Q 1616 4750 1894 4750 
Q 2613 4750 3031 4423 
Q 3450 4097 3450 3541 
Q 3450 3153 3228 2886 
Q 3006 2619 2597 2516 
z
" transform="scale(0.015625)"/>
      </defs>
      <use xlink:href="#DejaVuSans-44"/>
      <use xlink:href="#DejaVuSans-61" x="77.001953"/>
      <use xlink:href="#DejaVuSans-74" x="138.28125"/>
      <use xlink:href="#DejaVuSans-61" x="177.490234"/>
      <use xlink:href="#DejaVuSans-73" x="238.769531"/>
      <use xlink:href="#DejaVuSans-65" x="290.869141"/>
      <use xlink:href="#DejaVuSans-74" x="352.392578"/>
      <use xlink:href="#DejaVuSans-20" x="391.601562"/>
      <use xlink:href="#DejaVuSans-33" x="423.388672"/>
     </g>
    </g>
    <g id="line2d_21">
     <path d="M 320.45 291.546344 
L 331.45 291.546344 
L 342.45 291.546344 
" style="fill: none; stroke: #d62728; stroke-width: 1.5; stroke-linecap: square"/>
    </g>
    <g id="text_20">
     <!-- Dataset 4 -->
     <g transform="translate(351.25 295.396344)scale(0.11 -0.11)">
      <use xlink:href="#DejaVuSans-44"/>
      <use xlink:href="#DejaVuSans-61" x="77.001953"/>
      <use xlink:href="#DejaVuSans-74" x="138.28125"/>
      <use xlink:href="#DejaVuSans-61" x="177.490234"/>
      <use xlink:href="#DejaVuSans-73" x="238.769531"/>
      <use xlink:href="#DejaVuSans-65" x="290.869141"/>
      <use xlink:href="#DejaVuSans-74" x="352.392578"/>
      <use xlink:href="#DejaVuSans-20" x="391.601562"/>
      <use xlink:href="#DejaVuSans-34" x="423.388672"/>
     </g>
    </g>
   </g>
  </g>
 </g>
 <defs>
  <clipPath id="pe2bc694f14">
   <rect x="57.6" y="41.472" width="357.12" height="266.112"/>
  </clipPath>
 </defs>
</svg>
